<svg width="16" height="16" viewBox="0 0 16 16" fill="none" xmlns="http://www.w3.org/2000/svg">
    <path fill-rule="evenodd" clip-rule="evenodd" d="M0.435974 2.18404C0 3.03969 0 4.15979 0 6.4V9.6C0 11.8402 0 12.9603 0.435974 13.816C0.819467 14.5686 1.43139 15.1805 2.18404 15.564C3.03969 16 4.15979 16 6.4 16H9.6C11.8402 16 12.9603 16 13.816 15.564C14.5686 15.1805 15.1805 14.5686 15.564 13.816C16 12.9603 16 11.8402 16 9.6V6.4C16 4.15979 16 3.03969 15.564 2.18404C15.1805 1.43139 14.5686 0.819467 13.816 0.435974C12.9603 0 11.8402 0 9.6 0H6.4C4.15979 0 3.03969 0 2.18404 0.435974C1.43139 0.819467 0.819467 1.43139 0.435974 2.18404ZM12.6358 5.98694C12.9876 5.63576 12.9881 5.06591 12.6369 4.71414C12.2857 4.36238 11.7159 4.36191 11.3641 4.71309L6.69116 9.37828L4.63584 7.32637C4.28408 6.97519 3.71423 6.97566 3.36305 7.32743C3.01187 7.67919 3.01234 8.24904 3.36411 8.60022L6.0553 11.2869C6.40665 11.6377 6.97568 11.6377 7.32703 11.2869L12.6358 5.98694Z" fill="#2688EB"/>
</svg>
