<svg version="1.1" xmlns="http://www.w3.org/2000/svg">
    <defs>

        <symbol id="add_16">
            <path d="M9 9V13C9 13.5523 8.55228 14 8 14C7.44772 14 7 13.5523 7 13V9H3C2.44772 9 2 8.55228 2 8C2 7.44772 2.44772 7 3 7H7V3C7 2.44772 7.44772 2 8 2C8.55228 2 9 2.44772 9 3V7H13C13.5523 7 14 7.44772 14 8C14 8.55228 13.5523 9 13 9H9Z"/>
        </symbol>

        <symbol id="add_20">
            <path d="M12.5 4C13.0523 4 13.5 4.44772 13.5 5V11L19.5 11C20.0523 11 20.5 11.4477 20.5 12C20.5 12.5523 20.0523 13 19.5 13L13.5 13L13.5 19C13.5 19.5523 13.0523 20 12.5 20C11.9477 20 11.5 19.5523 11.5 19L11.499 13L5.5 13C4.94772 13 4.5 12.5523 4.5 12C4.5 11.4477 4.94772 11 5.5 11L11.499 11L11.5 5C11.5 4.44772 11.9477 4 12.5 4Z"/>
        </symbol>

        <symbol id="add_24">
            <path d="M12 4C12.5523 4 13 4.44772 13 5V11L19 11C19.5523 11 20 11.4477 20 12C20 12.5523 19.5523 13 19 13L13 13L13 19C13 19.5523 12.5523 20 12 20C11.4477 20 11 19.5523 11 19L10.999 13L5 13C4.44772 13 4 12.5523 4 12C4 11.4477 4.44772 11 5 11L10.999 11L11 5C11 4.44772 11.4477 4 12 4Z"/>
        </symbol>

        <symbol id="add_circle_outline_20">
            <path fill-rule="evenodd" clip-rule="evenodd"
                  d="M10 18.75C14.6944 18.75 18.5 14.9444 18.5 10.25C18.5 5.55558 14.6944 1.75 10 1.75C5.30558 1.75 1.5 5.55558 1.5 10.25C1.5 14.9444 5.30558 18.75 10 18.75ZM17 10.25C17 14.116 13.866 17.25 10 17.25C6.13401 17.25 3 14.116 3 10.25C3 6.38401 6.13401 3.25 10 3.25C13.866 3.25 17 6.38401 17 10.25ZM10 14.25C9.58579 14.25 9.25 13.9142 9.25 13.5V11H6.75C6.33579 11 6 10.6642 6 10.25C6 9.83579 6.33579 9.5 6.75 9.5H9.25V7C9.25 6.58579 9.58579 6.25 10 6.25C10.4142 6.25 10.75 6.58579 10.75 7V9.5H13.25C13.6642 9.5 14 9.83579 14 10.25C14 10.6642 13.6642 11 13.25 11H10.75V13.5C10.75 13.9142 10.4142 14.25 10 14.25Z"/>
        </symbol>

        <symbol id="arrow_left_outline_24">
            <path d="M11.5319 4.25911C11.8563 4.579 11.8868 5.08447 11.6208 5.43913L11.5409 5.53187L6.05 11.1L20.1 11.1C20.5971 11.1 21 11.5029 21 12C21 12.4588 20.6567 12.8375 20.2129 12.893L20.1 12.9H6.05L11.5409 18.4681C11.8608 18.7926 11.884 19.2984 11.6131 19.6493L11.5319 19.7409C11.2074 20.0608 10.7016 20.084 10.3507 19.8131L10.2591 19.7319L3.25911 12.6319C2.94242 12.3107 2.91603 11.8109 3.17994 11.4599L3.25911 11.3681L10.2591 4.26813C10.6081 3.91418 11.1779 3.91014 11.5319 4.25911Z"/>
        </symbol>

        <symbol id="arrow_right_outline_24">
            <path d="M12.4681 4.25911C12.1437 4.579 12.1132 5.08447 12.3792 5.43913L12.4591 5.53187L17.95 11.1L3.9 11.1C3.40294 11.1 3 11.5029 3 12C3 12.4588 3.34334 12.8375 3.78711 12.893L3.9 12.9H17.95L12.4591 18.4681C12.1392 18.7926 12.116 19.2984 12.3869 19.6493L12.4681 19.7409C12.7926 20.0608 13.2985 20.084 13.6493 19.8131L13.7409 19.7319L20.7409 12.6319C21.0576 12.3107 21.084 11.8109 20.8201 11.4599L20.7409 11.3681L13.7409 4.26813C13.3919 3.91418 12.8221 3.91014 12.4681 4.25911Z"/>
        </symbol>

        <symbol id="arrow_down_outline_28">
            <path d="M10.5001 16.4288L10.4863 16.4287C10.4696 16.4284 10.453 16.4275 10.4364 16.426L10.5001 16.4288C10.4625 16.4288 10.4255 16.4261 10.3894 16.4207C10.3811 16.419 10.3725 16.4175 10.364 16.4158C10.182 16.3831 10.0247 16.2843 9.92037 16.1468L4.28074 10.5054C4.0018 10.2264 4.0018 9.77415 4.28074 9.4952C4.53823 9.23771 4.9434 9.21791 5.2236 9.43578L5.2909 9.4952L9.78582 13.9903V3.53599C9.78582 3.16123 10.1056 2.85742 10.5001 2.85742C10.8664 2.85742 11.1683 3.11938 11.2096 3.45686L11.2144 3.53599V13.9903L15.7093 9.4952C15.9668 9.23771 16.372 9.21791 16.6522 9.43578L16.7195 9.4952C16.977 9.75269 16.9968 10.1579 16.7789 10.4381L16.7195 10.5054L11.0798 16.1468C10.9755 16.2843 10.8182 16.3831 10.6365 16.4165C10.6277 16.4175 10.6191 16.419 10.6104 16.4203C10.5955 16.423 10.58 16.4248 10.5644 16.4261C10.547 16.4275 10.5301 16.4284 10.5132 16.4287C10.5092 16.4288 10.5047 16.4288 10.5001 16.4288Z"/>
        </symbol>

        <symbol id="arrow_up_outline_24">
            <path d="M11.3681 3.25911C11.7185 2.91363 12.2815 2.91363 12.6319 3.25911L19.7319 10.2591C20.0858 10.6081 20.0899 11.1779 19.7409 11.5319C19.3919 11.8858 18.8221 11.8899 18.4681 11.5409L12.9 6.05118V20.1C12.9 20.5971 12.4971 21 12 21C11.5029 21 11.1 20.5971 11.1 20.1V6.05119L5.53187 11.5409C5.17791 11.8899 4.60808 11.8858 4.25911 11.5319C3.91014 11.1779 3.91418 10.6081 4.26813 10.2591L11.3681 3.25911Z"/>
        </symbol>

        <symbol id="arrow_up_outline_28">
            <path d="M9.99998 3.57227L10.0138 3.5724C10.0305 3.57272 10.0471 3.57362 10.0637 3.5751L9.99998 3.57227C10.0376 3.57227 10.0746 3.57503 10.1107 3.58037C10.1189 3.58213 10.1276 3.58363 10.1361 3.58529C10.3181 3.618 10.4753 3.71686 10.5797 3.85434L16.2193 9.49576C16.4983 9.77471 16.4983 10.227 16.2193 10.5059C15.9619 10.7634 15.5567 10.7832 15.2765 10.5653L15.2092 10.5059L10.7143 6.01084V16.4651C10.7143 16.8399 10.3945 17.1437 9.99998 17.1437C9.63367 17.1437 9.33176 16.8817 9.2905 16.5443L9.2857 16.4651V6.01084L4.79077 10.5059C4.53328 10.7634 4.12812 10.7832 3.84791 10.5653L3.78062 10.5059C3.52313 10.2484 3.50333 9.84326 3.7212 9.56305L3.78062 9.49576L9.42025 3.85434C9.52462 3.71686 9.68184 3.618 9.86363 3.58462C9.87241 3.58363 9.88102 3.58213 9.88965 3.58079C9.90459 3.5781 9.92006 3.5763 9.93567 3.57498C9.95308 3.5736 9.96997 3.57269 9.98687 3.57239C9.99084 3.57231 9.99541 3.57227 9.99998 3.57227Z"/>
        </symbol>

        <symbol id="cancel_16">
            <path d="M12.7364 3.2636C13.0879 3.61508 13.0879 4.18492 12.7364 4.5364L9.273 8L12.7364 11.4636C13.0586 11.7858 13.0854 12.2915 12.817 12.6442L12.7364 12.7364C12.3849 13.0879 11.8151 13.0879 11.4636 12.7364L8 9.273L4.5364 12.7364C4.18492 13.0879 3.61508 13.0879 3.2636 12.7364C2.91213 12.3849 2.91213 11.8151 3.2636 11.4636L6.727 8L3.2636 4.5364C2.94142 4.21421 2.91457 3.70853 3.18306 3.35577L3.2636 3.2636C3.61508 2.91213 4.18492 2.91213 4.5364 3.2636L8 6.727L11.4636 3.2636C11.8151 2.91213 12.3849 2.91213 12.7364 3.2636Z"/>
        </symbol>

        <symbol id="cancel_20">
            <rect width="28" height="28" rx="14" fill="black" fill-opacity="0.4"/>
            <path fill-rule="evenodd" clip-rule="evenodd"
                  d="M8.71967 8.71967C9.01256 8.42678 9.48744 8.42678 9.78033 8.71967L14 12.9393L18.2197 8.71967C18.5126 8.42678 18.9874 8.42678 19.2803 8.71967C19.5732 9.01256 19.5732 9.48744 19.2803 9.78033L15.0607 14L19.2803 18.2197C19.5732 18.5126 19.5732 18.9874 19.2803 19.2803C18.9874 19.5732 18.5126 19.5732 18.2197 19.2803L14 15.0607L9.78033 19.2803C9.48744 19.5732 9.01256 19.5732 8.71967 19.2803C8.42678 18.9874 8.42678 18.5126 8.71967 18.2197L12.9393 14L8.71967 9.78033C8.42678 9.48744 8.42678 9.01256 8.71967 8.71967Z"
                  fill="white"/>
        </symbol>

        <symbol id="cancel_24">
            <path d="M7.5364 6.2636C7.18492 5.91213 6.61508 5.91213 6.2636 6.2636C5.91213 6.61508 5.91213 7.18492 6.2636 7.5364L10.7272 12L6.2636 16.4636C5.91213 16.8151 5.91213 17.3849 6.2636 17.7364C6.61508 18.0879 7.18492 18.0879 7.5364 17.7364L12 13.2728L16.4636 17.7364C16.8151 18.0879 17.3849 18.0879 17.7364 17.7364C18.0879 17.3849 18.0879 16.8151 17.7364 16.4636L13.2728 12L17.7364 7.5364C18.0879 7.18492 18.0879 6.61508 17.7364 6.2636C17.3849 5.91213 16.8151 5.91213 16.4636 6.2636L12 10.7272L7.5364 6.2636Z"/>
        </symbol>

        <symbol id="chevron_left_2_20">
            <path fill-rule="evenodd" clip-rule="evenodd"
                  d="M9.5256 4.21689C9.81868 4.50959 9.81898 4.98447 9.52628 5.27755L4.81004 9.99986L9.52622 14.7211C9.81896 15.0141 9.8187 15.489 9.52565 15.7818C9.2326 16.0745 8.75773 16.0742 8.46499 15.7812L3.21939 10.53C2.92689 10.2372 2.92687 9.76277 3.21933 9.46993L8.46494 4.21757C8.75764 3.92449 9.23252 3.92418 9.5256 4.21689Z"/>
            <path fill-rule="evenodd" clip-rule="evenodd"
                  d="M15.5256 4.21689C15.8187 4.50959 15.819 4.98447 15.5263 5.27755L10.81 9.99986L15.5262 14.7211C15.819 15.0141 15.8187 15.489 15.5257 15.7818C15.2326 16.0745 14.7577 16.0742 14.465 15.7812L9.21939 10.53C8.92689 10.2372 8.92687 9.76277 9.21933 9.46993L14.4649 4.21757C14.7576 3.92449 15.2325 3.92418 15.5256 4.21689Z"/>
        </symbol>

        <symbol id="chevron_right_20">
            <path fill-rule="evenodd" clip-rule="evenodd"
                  d="M7.29291 4.29289C7.68343 3.90237 8.31659 3.90237 8.70712 4.29289L13.7071 9.29289C13.8947 9.48043 14 9.73478 14 10C14 10.2652 13.8947 10.5196 13.7071 10.7071L8.70711 15.7071C8.31658 16.0976 7.68342 16.0976 7.29289 15.7071C6.90237 15.3166 6.90237 14.6834 7.29289 14.2929L11.5858 10L7.29291 5.70711C6.90238 5.31658 6.90238 4.68342 7.29291 4.29289Z"/>
        </symbol>


        <symbol id="chevron_right_2_20">
            <path fill-rule="evenodd" clip-rule="evenodd"
                  d="M10.4744 4.21689C10.1813 4.50959 10.181 4.98446 10.4737 5.27755L15.19 9.99986L10.4738 14.7211C10.181 15.0141 10.1813 15.489 10.4743 15.7818C10.7674 16.0745 11.2423 16.0742 11.535 15.7812L16.7806 10.53C17.0731 10.2372 17.0731 9.76277 16.7807 9.46993L11.5351 4.21757C11.2424 3.92449 10.7675 3.92418 10.4744 4.21689Z"/>
            <path fill-rule="evenodd" clip-rule="evenodd"
                  d="M4.4744 4.21689C4.18132 4.50959 4.18101 4.98446 4.47372 5.27755L9.18996 9.99986L4.47377 14.7211C4.18104 15.0141 4.18129 15.489 4.47434 15.7818C4.76739 16.0745 5.24227 16.0742 5.535 15.7812L10.7806 10.53C11.0731 10.2372 11.0731 9.76277 10.7807 9.46993L5.53506 4.21757C5.24236 3.92449 4.76748 3.92418 4.4744 4.21689Z"/>
        </symbol>

        <symbol id="chevron_up_20">
            <path fill-rule="evenodd" clip-rule="evenodd"
                  d="M15.7809 11.1247C15.4359 11.5559 14.8066 11.6258 14.3753 11.2808L9.99999 7.78059L5.62469 11.2808C5.19343 11.6258 4.56413 11.5559 4.21912 11.1247C3.87412 10.6934 3.94404 10.0641 4.3753 9.71909L9.3753 5.71909C9.74052 5.42692 10.2595 5.42692 10.6247 5.71909L15.6247 9.71909C16.056 10.0641 16.1259 10.6934 15.7809 11.1247Z"/>
        </symbol>

        <symbol id="delete_outline_24">
            <path fill-rule="evenodd" clip-rule="evenodd"
                  d="M14.5562 8.10136C15.0523 8.13237 15.4294 8.55966 15.3983 9.05575L14.8983 17.0557C14.8673 17.5518 14.44 17.9289 13.944 17.8979C13.4479 17.8669 13.0708 17.4396 13.1019 16.9435L13.6019 8.94347C13.6329 8.44738 14.0602 8.07036 14.5562 8.10136Z"/>
            <path fill-rule="evenodd" clip-rule="evenodd"
                  d="M9.44396 8.10136C8.94787 8.13237 8.57084 8.55966 8.60185 9.05575L9.10185 17.0557C9.13286 17.5518 9.56015 17.9289 10.0562 17.8979C10.5523 17.8669 10.9294 17.4396 10.8983 16.9435L10.3983 8.94347C10.3673 8.44738 9.94005 8.07036 9.44396 8.10136Z"/>
            <path fill-rule="evenodd" clip-rule="evenodd"
                  d="M3.0001 4.09961C2.50304 4.09961 2.1001 4.50255 2.1001 4.99961C2.1001 5.49667 2.50304 5.89961 3.0001 5.89961H4.18053L5.33515 18.2156C5.38049 18.6994 5.41929 19.1134 5.47818 19.453C5.5403 19.8112 5.63512 20.1563 5.82907 20.4823C6.12327 20.9768 6.55794 21.3727 7.07776 21.6194C7.42045 21.7821 7.7729 21.8443 8.13539 21.8727C8.47897 21.8996 8.89479 21.8996 9.38076 21.8996H14.6194C15.1054 21.8996 15.5212 21.8996 15.8648 21.8727C16.2273 21.8443 16.5797 21.7821 16.9224 21.6194C17.4423 21.3727 17.8769 20.9768 18.1711 20.4823C18.3651 20.1563 18.4599 19.8112 18.522 19.453C18.5809 19.1134 18.6197 18.6994 18.665 18.2156L19.8197 5.89961H21.0001C21.4972 5.89961 21.9001 5.49667 21.9001 4.99961C21.9001 4.50255 21.4972 4.09961 21.0001 4.09961H15.7957C15.3894 2.37959 13.8442 1.09961 12.0001 1.09961C10.1559 1.09961 8.61076 2.37959 8.20446 4.09961H3.0001ZM7.12417 18.0143C7.17351 18.5406 7.20632 18.8837 7.25171 19.1454C7.29519 19.3962 7.33958 19.5008 7.37601 19.562C7.48761 19.7496 7.65248 19.8997 7.84966 19.9933C7.91403 20.0239 8.02234 20.0583 8.27607 20.0782C8.54087 20.099 8.88556 20.0996 9.41413 20.0996H14.5861C15.1146 20.0996 15.4593 20.099 15.7241 20.0782C15.9779 20.0583 16.0862 20.0239 16.1505 19.9933C16.3477 19.8997 16.5126 19.7496 16.6242 19.562C16.6606 19.5008 16.705 19.3962 16.7485 19.1454C16.7939 18.8837 16.8267 18.5406 16.876 18.0143L18.0118 5.89961H5.98842L7.12417 18.0143ZM12.0001 2.89961C11.1624 2.89961 10.4392 3.39013 10.1022 4.09961H13.898C13.561 3.39013 12.8378 2.89961 12.0001 2.89961Z"/>
        </symbol>

        <symbol id="dropdown_20">
            <path fill-rule="evenodd" clip-rule="evenodd"
                  d="M4.21917 5.87534C4.56418 5.44408 5.19347 5.37416 5.62473 5.71917L10 9.21941L14.3753 5.71917C14.8066 5.37416 15.4359 5.44408 15.7809 5.87534C16.1259 6.3066 16.056 6.9359 15.6247 7.28091L10.6247 11.2809C10.2595 11.5731 9.74056 11.5731 9.37534 11.2809L4.37534 7.28091C3.94408 6.9359 3.87416 6.3066 4.21917 5.87534Z"
                  fill="#99A2AD"/>
        </symbol>

        <symbol id="error_circle_outline_20">
            <path d="M12.9501 8.74961C12.9501 8.16971 13.4202 7.69961 14.0001 7.69961C14.58 7.69961 15.0501 8.16971 15.0501 8.74961V15.0496C15.0501 15.6295 14.58 16.0996 14.0001 16.0996C13.4202 16.0996 12.9501 15.6295 12.9501 15.0496V8.74961Z"
                  fill="#E64646"/>
            <path d="M14.0001 18.1996C13.3042 18.1996 12.7401 18.7637 12.7401 19.4596C12.7401 20.1555 13.3042 20.7196 14.0001 20.7196C14.6959 20.7196 15.2601 20.1555 15.2601 19.4596C15.2601 18.7637 14.6959 18.1996 14.0001 18.1996Z"
                  fill="#E64646"/>
            <path fill-rule="evenodd" clip-rule="evenodd"
                  d="M14.0001 2.09961C7.42791 2.09961 2.1001 7.42742 2.1001 13.9996C2.1001 20.5718 7.42791 25.8996 14.0001 25.8996C20.5723 25.8996 25.9001 20.5718 25.9001 13.9996C25.9001 7.42742 20.5723 2.09961 14.0001 2.09961ZM4.2001 13.9996C4.2001 19.412 8.58771 23.7996 14.0001 23.7996C19.4125 23.7996 23.8001 19.412 23.8001 13.9996C23.8001 8.58722 19.4125 4.19961 14.0001 4.19961C8.58771 4.19961 4.2001 8.58722 4.2001 13.9996Z"
                  fill="#E64646"/>
        </symbol>

        <symbol id="folder_simple_arrow_right_24">
            <path fill-rule="evenodd" clip-rule="evenodd"
                  d="M7.61112 4.80008C7.96653 4.80008 8.017 4.80448 8.05657 4.81275C8.11739 4.82544 8.17587 4.84751 8.22992 4.87816C8.26509 4.8981 8.30589 4.92814 8.5727 5.16293L9.72554 6.17743L9.77148 6.21791C9.97693 6.39912 10.1736 6.5726 10.4045 6.7003C10.607 6.81225 10.8245 6.89434 11.0505 6.94403C11.3082 7.00072 11.5704 7.00042 11.8444 7.00011L11.9056 7.00006H16.3C17.1549 7.00006 17.742 7.00076 18.1971 7.03794C18.6417 7.07427 18.8805 7.14088 19.0534 7.22895C19.4485 7.43028 19.7698 7.75154 19.9711 8.14668C20.0592 8.31953 20.1258 8.55835 20.1621 9.00295C20.1993 9.45806 20.2 10.0451 20.2 10.9001V14.3001C20.2 15.155 20.1993 15.7421 20.1621 16.1972C20.1258 16.6418 20.0592 16.8806 19.9711 17.0534C19.7698 17.4486 19.4485 17.7698 19.0534 17.9712C18.8805 18.0592 18.6417 18.1259 18.1971 18.1622C17.742 18.1994 17.1549 18.2001 16.3 18.2001H14.3029C13.8059 18.2001 13.4029 18.603 13.4029 19.1001C13.4029 19.5971 13.8059 20.0001 14.3029 20.0001H16.3377C17.1457 20.0001 17.8066 20.0001 18.3437 19.9562C18.8996 19.9108 19.4016 19.8139 19.8705 19.575C20.6044 19.2011 21.201 18.6045 21.5749 17.8706C21.8138 17.4017 21.9107 16.8997 21.9561 16.3437C22 15.8067 22 15.1458 22 14.3378V10.8624C22 10.0543 22 9.39345 21.9561 8.85638C21.9107 8.30046 21.8138 7.79838 21.5749 7.3295C21.201 6.59566 20.6044 5.99904 19.8705 5.62513C19.4016 5.38622 18.8996 5.28934 18.3437 5.24392C17.8066 5.20004 17.1457 5.20005 16.3377 5.20006H16.3377L11.9056 5.20006C11.5316 5.20006 11.4787 5.19519 11.4371 5.18605C11.3806 5.17363 11.3262 5.15311 11.2756 5.12512C11.2384 5.10453 11.1954 5.07318 10.9147 4.82613L9.76182 3.81164L9.71815 3.77315C9.52284 3.60091 9.33593 3.43607 9.11781 3.31238C8.90162 3.18979 8.6677 3.10152 8.42441 3.05073C8.17895 2.99949 7.92974 2.99976 7.66933 3.00004L7.61112 3.00008L7.57533 3.00008C6.80755 3.00007 6.17961 3.00007 5.66848 3.03979C5.13968 3.08089 4.66112 3.16849 4.21077 3.3849C3.41243 3.76855 2.76846 4.41251 2.38482 5.21085C2.1684 5.6612 2.08081 6.13976 2.03971 6.66856C1.99998 7.17969 1.99999 7.80762 2 8.57539V8.57541V13.903C2 14.4 2.40294 14.803 2.9 14.803C3.39706 14.803 3.8 14.4 3.8 13.903V8.6112C3.8 7.79892 3.80063 7.24116 3.8343 6.80804C3.8672 6.38465 3.92761 6.15613 4.00721 5.9905C4.21379 5.56062 4.56054 5.21387 4.99041 5.00729C5.15605 4.9277 5.38457 4.86728 5.80795 4.83438C6.24108 4.80072 6.79884 4.80008 7.61112 4.80008ZM2.90095 16.6001C2.4039 16.6001 2.00095 17.003 2.00095 17.5001C2.00095 17.9971 2.4039 18.4001 2.90095 18.4001H8.92348L7.26426 20.0593C6.91279 20.4107 6.91279 20.9806 7.26427 21.3321C7.61574 21.6835 8.18559 21.6835 8.53706 21.3321L11.7327 18.1365C12.0838 17.7853 12.0842 17.2161 11.7335 16.8645L8.54203 13.6645C8.19103 13.3126 7.62118 13.3118 7.26924 13.6628C6.9173 14.0138 6.91654 14.5837 7.26755 14.9356L8.92755 16.6001H2.90095Z"/>
        </symbol>

        <symbol id="group_columns">
            <path fill-rule="evenodd" clip-rule="evenodd"
                  d="M13.9787 2.57227C16.1982 2.57227 17.2512 2.77561 18.3448 3.36048C19.3323 3.88859 20.1124 4.66868 20.6405 5.65615C21.2253 6.74977 21.4287 7.80276 21.4287 10.0223V13.9794C21.4287 16.1989 21.2253 17.2519 20.6405 18.3455C20.1124 19.333 19.3323 20.1131 18.3448 20.6412C17.2512 21.2261 16.1982 21.4294 13.9787 21.4294H10.0215C7.80203 21.4294 6.74904 21.2261 5.65542 20.6412C4.66795 20.1131 3.88785 19.333 3.35975 18.3455C2.77487 17.2519 2.57153 16.1989 2.57153 13.9794V10.0223C2.57153 7.80276 2.77487 6.74977 3.35975 5.65615C3.88785 4.66868 4.66795 3.88859 5.65542 3.36048C6.74904 2.77561 7.80203 2.57227 10.0215 2.57227H13.9787ZM13.9787 4.28655H10.0215C8.06082 4.28655 7.27519 4.43826 6.46387 4.87216C5.77515 5.24049 5.23976 5.77588 4.87143 6.4646C4.43753 7.27592 4.28582 8.06155 4.28582 10.0223V13.9794C4.28582 15.9401 4.43753 16.7258 4.87143 17.5371C5.23976 18.2258 5.77515 18.7612 6.46387 19.1295C7.27519 19.5634 8.06082 19.7151 10.0215 19.7151H13.9787C15.9394 19.7151 16.725 19.5634 17.5363 19.1295C18.2251 18.7612 18.7604 18.2258 19.1288 17.5371C19.5627 16.7258 19.7144 15.9401 19.7144 13.9794V10.0223C19.7144 8.06155 19.5627 7.27592 19.1288 6.4646C18.7604 5.77588 18.2251 5.24049 17.5363 4.87216C16.725 4.43826 15.9394 4.28655 13.9787 4.28655ZM7.71439 9.00084C7.71439 8.29076 8.29002 7.71512 9.0001 7.71512H15.0001C15.7102 7.71512 16.2858 8.29076 16.2858 9.00084C16.2858 9.71092 15.7102 10.2866 15.0001 10.2866H9.0001C8.29002 10.2866 7.71439 9.71092 7.71439 9.00084ZM9.0001 13.7151C8.29002 13.7151 7.71439 14.2908 7.71439 15.0008C7.71439 15.7109 8.29002 16.2866 9.0001 16.2866H12.4287C13.1388 16.2866 13.7144 15.7109 13.7144 15.0008C13.7144 14.2908 13.1388 13.7151 12.4287 13.7151H9.0001Z"/>
        </symbol>

        <symbol id="hide_outline_24">
            <path fill-rule="evenodd" clip-rule="evenodd"
                  d="M11.5932 6.41008C11.0968 6.4355 10.6738 6.05369 10.6483 5.55728C10.6229 5.06088 11.0047 4.63785 11.5011 4.61243C14.2597 4.47118 17.075 5.56565 19.15 7.11355C20.125 7.84089 20.9375 8.66706 21.5063 9.50905C22.0753 10.3513 22.4001 11.2091 22.4001 11.9996C22.4001 12.94 21.9361 13.9806 21.1579 14.9656C20.8498 15.3557 20.2838 15.4221 19.8938 15.114C19.5038 14.8059 19.4374 14.2399 19.7455 13.8499C20.1554 13.331 20.6001 12.6821 20.6001 11.9996C20.6001 11.6872 20.4616 11.1782 20.0147 10.5166C19.5787 9.87113 18.9177 9.18594 18.0737 8.55634C16.2387 7.18745 13.9052 6.29169 11.5932 6.41008Z"/>
            <path fill-rule="evenodd" clip-rule="evenodd"
                  d="M4.8502 16.8856C6.80033 18.3403 9.40034 19.3996 12.0001 19.3996C13.9673 19.3996 15.9299 18.7928 17.6043 17.8766L18.8637 19.136C19.2152 19.4875 19.785 19.4875 20.1365 19.136C20.488 18.7845 20.488 18.2147 20.1365 17.8632L6.63649 4.36321C6.28502 4.01174 5.71517 4.01174 5.3637 4.36321C5.01223 4.71469 5.01223 5.28453 5.3637 5.63601L6.04763 6.31993C5.62895 6.56562 5.22825 6.83154 4.8502 7.11355C3.87518 7.84089 3.06265 8.66706 2.49389 9.50905C1.92492 10.3513 1.6001 11.2091 1.6001 11.9996C1.6001 12.79 1.92492 13.6478 2.49389 14.4901C3.06265 15.3321 3.87518 16.1583 4.8502 16.8856ZM10.4001 11.9996C10.4001 12.8832 11.1164 13.5996 12.0001 13.5996C12.3724 13.5996 12.7146 13.4731 12.9869 13.2592L10.7404 11.0127C10.5267 11.285 10.4001 11.6276 10.4001 11.9996ZM12.0001 15.3996C10.1223 15.3996 8.6001 13.8774 8.6001 11.9996C8.6001 11.1297 8.92718 10.3364 9.46346 9.73576L7.36989 7.64219C6.85696 7.91568 6.37207 8.22394 5.92647 8.55634C5.08247 9.18594 4.42149 9.87113 3.98547 10.5166C3.53859 11.1782 3.4001 11.6872 3.4001 11.9996C3.4001 12.3119 3.53859 12.821 3.98547 13.4825C4.42149 14.128 5.08247 14.8132 5.92647 15.4428C7.63091 16.7143 9.86236 17.5996 12.0001 17.5996C13.4393 17.5996 14.9251 17.1985 16.2692 16.5415L14.264 14.5363C13.6634 15.0724 12.8696 15.3996 12.0001 15.3996Z"/>
        </symbol>

        <symbol id="menu_outline_28">
            <path d="M19.7142 17.1426C20.1876 17.1426 20.5713 17.5263 20.5713 17.9997C20.5713 18.4731 20.1876 18.8569 19.7142 18.8569H4.28561C3.81222 18.8569 3.42847 18.4731 3.42847 17.9997C3.42847 17.5263 3.81222 17.1426 4.28561 17.1426H19.7142ZM19.7142 11.1426C20.1876 11.1426 20.5713 11.5263 20.5713 11.9997C20.5713 12.4731 20.1876 12.8569 19.7142 12.8569H4.28561C3.81222 12.8569 3.42847 12.4731 3.42847 11.9997C3.42847 11.5263 3.81222 11.1426 4.28561 11.1426H19.7142ZM19.7142 5.14258C20.1876 5.14258 20.5713 5.52633 20.5713 5.99972C20.5713 6.47311 20.1876 6.85686 19.7142 6.85686H4.28561C3.81222 6.85686 3.42847 6.47311 3.42847 5.99972C3.42847 5.52633 3.81222 5.14258 4.28561 5.14258H19.7142Z"/>
        </symbol>

        <symbol id="lines_3_horizontal_left_outline_28">
            <path d="M11.9285 14.2852C12.323 14.2852 12.6428 14.605 12.6428 14.9994C12.6428 15.3939 12.323 15.7137 11.9285 15.7137H4.0714C3.67691 15.7137 3.35712 15.3939 3.35712 14.9994C3.35712 14.605 3.67691 14.2852 4.0714 14.2852H11.9285ZM16.9285 9.28516C17.323 9.28516 17.6428 9.60495 17.6428 9.99944C17.6428 10.3939 17.323 10.7137 16.9285 10.7137H4.0714C3.67691 10.7137 3.35712 10.3939 3.35712 9.99944C3.35712 9.60495 3.67691 9.28516 4.0714 9.28516H16.9285ZM16.9285 4.28516C17.323 4.28516 17.6428 4.60495 17.6428 4.99944C17.6428 5.39393 17.323 5.71373 16.9285 5.71373H4.0714C3.67691 5.71373 3.35712 5.39393 3.35712 4.99944C3.35712 4.60495 3.67691 4.28516 4.0714 4.28516H16.9285Z"/>
        </symbol>

        <symbol id="lines_3_horizontal_right_outline_28">
            <path d="M9.07142 14.2852C8.67694 14.2852 8.35714 14.605 8.35714 14.9994C8.35714 15.3939 8.67694 15.7137 9.07142 15.7137H16.9286C17.3231 15.7137 17.6429 15.3939 17.6429 14.9994C17.6429 14.605 17.3231 14.2852 16.9286 14.2852H9.07142ZM4.07142 9.28516C3.67694 9.28516 3.35714 9.60495 3.35714 9.99944C3.35714 10.3939 3.67694 10.7137 4.07142 10.7137H16.9286C17.3231 10.7137 17.6429 10.3939 17.6429 9.99944C17.6429 9.60495 17.3231 9.28516 16.9286 9.28516H4.07142ZM4.07142 4.28516C3.67694 4.28516 3.35714 4.60495 3.35714 4.99944C3.35714 5.39393 3.67694 5.71373 4.07142 5.71373H16.9286C17.3231 5.71373 17.6429 5.39393 17.6429 4.99944C17.6429 4.60495 17.3231 4.28516 16.9286 4.28516H4.07142Z"/>
        </symbol>

        <symbol id="list_checked_outline_24">
            <path d="M3.9 6.89961L18.1 6.89961C18.5971 6.89961 19 6.49667 19 5.99961C19 5.50255 18.5971 5.09961 18.1 5.09961L3.9 5.09961C3.40294 5.09961 3 5.50256 3 5.99961C3 6.49667 3.40294 6.89961 3.9 6.89961Z"/>
            <path d="M3.9 10.0996C3.40294 10.0996 3 10.5026 3 10.9996C3 11.4967 3.40294 11.8996 3.9 11.8996L18.1 11.8996C18.5971 11.8996 19 11.4967 19 10.9996C19 10.5026 18.5971 10.0996 18.1 10.0996L3.9 10.0996Z"/>
            <path d="M3 15.9996C3 15.5026 3.40294 15.0996 3.9 15.0996H9.1C9.59706 15.0996 10 15.5026 10 15.9996C10 16.4967 9.59706 16.8996 9.1 16.8996H3.9C3.40294 16.8996 3 16.4967 3 15.9996Z"/>
            <path d="M22.7234 13.6901C23.1047 13.2906 23.09 12.6576 22.6905 12.2763C22.291 11.8949 21.658 11.9097 21.2766 12.3092L16.2727 17.5514L13.7234 14.8806C13.342 14.4811 12.709 14.4664 12.3095 14.8477C11.91 15.229 11.8953 15.862 12.2766 16.2615L15.5494 19.6901C15.7381 19.8878 15.9994 19.9996 16.2727 19.9996C16.546 19.9996 16.8074 19.8878 16.9961 19.6901L22.7234 13.6901Z"/>
        </symbol>

        <symbol id="lock_12">
            <path d="M6 0.5C7.65685 0.5 9 1.83653 9 3.49199V4.999L9.74815 5C10.1634 5 10.5 5.33978 10.5 5.7599V10.2401C10.5 10.6598 10.1582 11 9.74815 11H2.25185C1.83662 11 1.5 10.6602 1.5 10.2401V5.7599C1.5 5.34022 1.84182 5 2.25185 5L3 4.999V3.50118C3 1.90287 4.25206 0.596377 5.82406 0.505095L6 0.5ZM6 2L5.85464 2.00687C5.08977 2.07955 4.5 2.7203 4.5 3.5V5H7.5V3.5C7.5 2.6658 6.82843 2 6 2Z"/>
        </symbol>

        <symbol id="pen_outline_24">
            <path fill-rule="evenodd" clip-rule="evenodd"
                  d="M14.2594 7.47756L5.22228 16.5147C5.01599 16.721 4.9001 17.0008 4.9001 17.2925L4.9001 18.9996C4.9001 19.0548 4.94487 19.0996 5.0001 19.0996H6.7072C6.99894 19.0996 7.27873 18.9837 7.48502 18.7774L16.5221 9.7403L14.2594 7.47756ZM15.5322 6.20476L17.7949 8.4675L18.9263 7.33613C19.1606 7.10182 19.1606 6.72192 18.9263 6.48761L17.5121 5.07339C17.2778 4.83908 16.8979 4.83908 16.6635 5.07339L15.5322 6.20476ZM3.94949 15.2419L15.3907 3.8006C16.328 2.86334 17.8476 2.86334 18.7849 3.8006L20.1991 5.21481C21.1363 6.15207 21.1363 7.67167 20.1991 8.60893L8.75781 20.0502C8.21396 20.5941 7.47633 20.8996 6.7072 20.8996L5.0001 20.8996C3.95076 20.8996 3.1001 20.0489 3.1001 18.9996L3.1001 17.2925C3.1001 16.5234 3.40563 15.7857 3.94949 15.2419Z"/>
        </symbol>

        <symbol id="rectangles_2_outline_24">
            <path fill-rule="evenodd" clip-rule="evenodd"
                  d="M3 7C3 5.59987 3 4.8998 3.27248 4.36502C3.51217 3.89462 3.89462 3.51217 4.36502 3.27248C4.8998 3 5.59987 3 7 3H17C18.4001 3 19.1002 3 19.635 3.27248C20.1054 3.51217 20.4878 3.89462 20.7275 4.36502C21 4.8998 21 5.59987 21 7C21 8.40013 21 9.1002 20.7275 9.63498C20.4878 10.1054 20.1054 10.4878 19.635 10.7275C19.1002 11 18.4001 11 17 11H7C5.59987 11 4.8998 11 4.36502 10.7275C3.89462 10.4878 3.51217 10.1054 3.27248 9.63498C3 9.1002 3 8.40013 3 7ZM7 4.8H17C17.7298 4.8 18.1688 4.8014 18.4954 4.82808C18.7167 4.84616 18.8016 4.871 18.8207 4.87778C18.9501 4.94448 19.0555 5.04989 19.1222 5.17932C19.129 5.19843 19.1538 5.28331 19.1719 5.50458C19.1986 5.83116 19.2 6.27023 19.2 7C19.2 7.72977 19.1986 8.16884 19.1719 8.49542C19.1538 8.71668 19.129 8.80156 19.1222 8.82068C19.0555 8.95011 18.9501 9.05552 18.8207 9.12222C18.8016 9.129 18.7167 9.15384 18.4954 9.17192C18.1688 9.1986 17.7298 9.2 17 9.2H7C6.27023 9.2 5.83116 9.1986 5.50458 9.17192C5.2833 9.15384 5.19843 9.129 5.17932 9.12222C5.04989 9.05552 4.94448 8.95011 4.87778 8.82068C4.871 8.80158 4.84616 8.7167 4.82808 8.49542C4.8014 8.16884 4.8 7.72977 4.8 7C4.8 6.27023 4.8014 5.83116 4.82808 5.50458C4.84616 5.2833 4.871 5.19842 4.87778 5.17932C4.94448 5.04989 5.04989 4.94448 5.17932 4.87778C5.19842 4.871 5.2833 4.84616 5.50458 4.82808C5.83116 4.8014 6.27023 4.8 7 4.8ZM19.1208 8.82399C19.1206 8.82466 19.1204 8.82504 19.1205 8.82509C19.1205 8.82519 19.1212 8.82343 19.1222 8.82068C19.1217 8.82185 19.1211 8.82334 19.1208 8.82399ZM18.8251 9.12045C18.8251 9.12047 18.8254 9.1203 18.8251 9.12045V9.12045Z"/>
            <path fill-rule="evenodd" clip-rule="evenodd"
                  d="M3 17C3 15.5999 3 14.8998 3.27248 14.365C3.51217 13.8946 3.89462 13.5122 4.36502 13.2725C4.8998 13 5.59987 13 7 13H17C18.4001 13 19.1002 13 19.635 13.2725C20.1054 13.5122 20.4878 13.8946 20.7275 14.365C21 14.8998 21 15.5999 21 17C21 18.4001 21 19.1002 20.7275 19.635C20.4878 20.1054 20.1054 20.4878 19.635 20.7275C19.1002 21 18.4001 21 17 21H7C5.59987 21 4.8998 21 4.36502 20.7275C3.89462 20.4878 3.51217 20.1054 3.27248 19.635C3 19.1002 3 18.4001 3 17ZM7 14.8H17C17.7298 14.8 18.1688 14.8014 18.4954 14.8281C18.7167 14.8462 18.8016 14.871 18.8207 14.8778C18.9501 14.9445 19.0555 15.0499 19.1222 15.1793C19.129 15.1984 19.1538 15.2833 19.1719 15.5046C19.1986 15.8312 19.2 16.2702 19.2 17C19.2 17.7298 19.1986 18.1688 19.1719 18.4954C19.1538 18.7167 19.129 18.8016 19.1222 18.8207C19.0555 18.9501 18.9501 19.0555 18.8207 19.1222C18.8016 19.129 18.7167 19.1538 18.4954 19.1719C18.1688 19.1986 17.7298 19.2 17 19.2H7C6.27023 19.2 5.83116 19.1986 5.50458 19.1719C5.2833 19.1538 5.19843 19.129 5.17932 19.1222C5.04989 19.0555 4.94448 18.9501 4.87778 18.8207C4.871 18.8016 4.84616 18.7167 4.82808 18.4954C4.8014 18.1688 4.8 17.7298 4.8 17C4.8 16.2702 4.8014 15.8312 4.82808 15.5046C4.84616 15.2833 4.871 15.1984 4.87778 15.1793C4.94448 15.0499 5.04989 14.9445 5.17932 14.8778C5.19842 14.871 5.2833 14.8462 5.50458 14.8281C5.83116 14.8014 6.27023 14.8 7 14.8ZM19.121 15.176C19.1206 15.1752 19.1205 15.1749 19.1205 15.1749C19.1204 15.175 19.1211 15.1769 19.1222 15.1793C19.1218 15.1781 19.1212 15.1766 19.121 15.176ZM19.1222 18.8207C19.1211 18.8231 19.1204 18.825 19.1205 18.8251C19.1205 18.8251 19.1207 18.8248 19.121 18.8239C19.1213 18.8233 19.1218 18.8218 19.1222 18.8207ZM18.8207 19.1222C18.8234 19.1212 18.8252 19.1205 18.8251 19.1205C18.825 19.1204 18.8245 19.1206 18.8235 19.121C18.8229 19.1213 18.8216 19.1218 18.8207 19.1222Z"/>
        </symbol>


        <symbol id="search_16">
            <path d="M6.50006 1C9.53765 1 12.0001 3.46256 12.0001 6.50029C12.0001 7.74868 11.5842 8.89993 10.8835 9.82304L14.7791 13.7233C15.0718 14.0164 15.0715 14.4913 14.7785 14.784C14.4854 15.0767 14.0105 15.0764 13.7178 14.7834L9.82266 10.8839C8.89959 11.5847 7.74839 12.0006 6.50006 12.0006C3.46246 12.0006 1 9.53802 1 6.50029C1 3.46256 3.46246 1 6.50006 1ZM6.50006 2.5C4.2909 2.5 2.5 4.29098 2.5 6.50029C2.5 8.70961 4.2909 10.5006 6.50006 10.5006C8.70921 10.5006 10.5001 8.70961 10.5001 6.50029C10.5001 4.29098 8.70921 2.5 6.50006 2.5Z"/>
        </symbol>

        <symbol id="search_20">
            <path fill-rule="evenodd" clip-rule="evenodd"
                  d="M9.5 4.5C6.73858 4.5 4.5 6.73858 4.5 9.5C4.5 12.2614 6.73858 14.5 9.5 14.5C12.2614 14.5 14.5 12.2614 14.5 9.5C14.5 6.73858 12.2614 4.5 9.5 4.5ZM3 9.5C3 5.91015 5.91015 3 9.5 3C13.0899 3 16 5.91015 16 9.5C16 11.0247 15.475 12.4268 14.596 13.5353L17.7803 16.7197C18.0732 17.0126 18.0732 17.4874 17.7803 17.7803C17.4874 18.0732 17.0126 18.0732 16.7197 17.7803L13.5353 14.596C12.4268 15.475 11.0247 16 9.5 16C5.91015 16 3 13.0899 3 9.5Z"/>
        </symbol>

        <symbol id="search_24">
            <path fill-rule="evenodd" clip-rule="evenodd"
                  d="M10.75 3.5C6.74594 3.5 3.5 6.74594 3.5 10.75C3.5 14.7541 6.74594 18 10.75 18C12.4277 18 13.9722 17.4302 15.2007 16.4735L19.4636 20.7364C19.8151 21.0879 20.3849 21.0879 20.7364 20.7364C21.0878 20.3849 21.0878 19.8151 20.7364 19.4636L16.4735 15.2007C17.4302 13.9722 18 12.4277 18 10.75C18 6.74594 14.7541 3.5 10.75 3.5ZM10.75 5.3C7.74005 5.3 5.3 7.74005 5.3 10.75C5.3 13.76 7.74005 16.2 10.75 16.2C13.76 16.2 16.2 13.76 16.2 10.75C16.2 7.74005 13.76 5.3 10.75 5.3Z"/>
        </symbol>

        <symbol id="sort_outline_20">
            <path fill-rule="evenodd" clip-rule="evenodd"
                  d="M16.5 4.7998C16.7387 4.7998 16.9676 4.89463 17.1364 5.06341L20.1364 8.06341C20.4878 8.41488 20.4878 8.98473 20.1364 9.3362C19.7849 9.68767 19.215 9.68767 18.8636 9.3362L17.4 7.8726V18.2998C17.4 18.7969 16.997 19.1998 16.5 19.1998C16.0029 19.1998 15.6 18.7969 15.6 18.2998V7.8726L14.1364 9.3362C13.7849 9.68767 13.2151 9.68767 12.8636 9.3362C12.5121 8.98473 12.5121 8.41488 12.8636 8.06341L15.8636 5.06341C16.0324 4.89463 16.2613 4.7998 16.5 4.7998ZM7.49998 4.79981C7.99703 4.79981 8.39998 5.20275 8.39998 5.6998L8.39998 16.127L9.86358 14.6634C10.2151 14.3119 10.7849 14.3119 11.1364 14.6634C11.4878 15.0149 11.4878 15.5847 11.1364 15.9362L8.13637 18.9362C7.96759 19.105 7.73867 19.1998 7.49998 19.1998C7.26128 19.1998 7.03236 19.105 6.86358 18.9362L3.86358 15.9362C3.51211 15.5847 3.51211 15.0149 3.86358 14.6634C4.21505 14.3119 4.7849 14.3119 5.13637 14.6634L6.59998 16.127L6.59998 5.6998C6.59998 5.20275 7.00292 4.79981 7.49998 4.79981Z"/>
        </symbol>

        <symbol id="sort_outline_28">
            <path d="M7.71418 5.57139C8.18757 5.57139 8.57132 5.98467 8.57132 6.49447V15.5014L10.5367 13.5367C10.8456 13.2277 11.3318 13.204 11.6681 13.4654L11.7488 13.5367C12.0836 13.8715 12.0836 14.4142 11.7488 14.7489L8.32027 18.1775C7.98554 18.5122 7.44282 18.5122 7.10809 18.1775L3.67952 14.7489C3.34478 14.4142 3.34478 13.8715 3.67952 13.5367C4.01425 13.202 4.55697 13.202 4.8917 13.5367L6.85704 15.5014V6.49447C6.85704 6.01866 7.19133 5.62693 7.62079 5.57681L7.71418 5.57139ZM16.8917 5.78816L20.3203 9.21673C20.655 9.55147 20.655 10.0942 20.3203 10.4289C19.9855 10.7636 19.4428 10.7636 19.1081 10.4289L17.1428 8.46339V17.5371C17.1428 18.0105 16.759 18.3943 16.2856 18.3943C15.8122 18.3943 15.4285 18.0105 15.4285 17.5371V8.46339L13.4631 10.4289C13.1284 10.7636 12.5857 10.7636 12.2509 10.4289C11.9162 10.0942 11.9162 9.55147 12.2509 9.21673L15.6795 5.78816C16.0143 5.45343 16.557 5.45343 16.8917 5.78816Z"/>
        </symbol>

        <symbol id="statistics_outline_24">
            <path fill-rule="evenodd" clip-rule="evenodd"
                  d="M2.1001 19.0016C2.1001 18.5045 2.50304 18.1016 3.0001 18.1016H21.0001C21.4972 18.1016 21.9001 18.5045 21.9001 19.0016C21.9001 19.4986 21.4972 19.9016 21.0001 19.9016H3.0001C2.50304 19.9016 2.1001 19.4986 2.1001 19.0016Z"/>
            <path fill-rule="evenodd" clip-rule="evenodd"
                  d="M16.5001 5.90156C16.003 5.90156 15.6001 5.49862 15.6001 5.00156C15.6001 4.50451 16.003 4.10156 16.5001 4.10156H21.0001C21.4972 4.10156 21.9001 4.50451 21.9001 5.00156V9.50156C21.9001 9.99862 21.4972 10.4016 21.0001 10.4016C20.503 10.4016 20.1001 9.99862 20.1001 9.50156V7.17435L14.1365 13.138C13.785 13.4894 13.2152 13.4894 12.8637 13.138L9.5001 9.77435L3.63649 15.638C3.28502 15.9894 2.71517 15.9894 2.3637 15.638C2.01223 15.2865 2.01223 14.7166 2.3637 14.3652L8.8637 7.86517C9.21517 7.51369 9.78502 7.51369 10.1365 7.86517L13.5001 11.2288L18.8273 5.90156H16.5001Z"/>
        </symbol>


        <symbol id="text_outline_28">
            <path d="M11.7573 17.9737C12.3725 17.9737 12.8154 17.548 12.8154 16.9399C12.8154 16.7401 12.7743 16.5403 12.6759 16.2536L9.2312 6.35011C8.93594 5.50744 8.46024 5.14258 7.68108 5.14258C6.91012 5.14258 6.43442 5.52482 6.14736 6.35879L2.71084 16.2536C2.61242 16.5229 2.57141 16.7661 2.57141 16.9399C2.57141 17.574 2.9897 17.9737 3.63763 17.9737C4.18715 17.9737 4.49881 17.687 4.69566 17.0094L5.47482 14.6291H9.89554L10.6747 17.0267C10.8633 17.6957 11.1832 17.9737 11.7573 17.9737ZM9.37883 12.8569H5.97512L7.64007 7.50551H7.69748L9.37883 12.8569ZM20.4361 17.9997C21.0103 17.9997 21.4286 17.6088 21.4286 16.9138V11.4843C21.4286 9.63389 20.0261 8.42636 17.869 8.42636C16.2041 8.42636 14.859 9.10397 14.4161 10.1725C14.3259 10.3723 14.2767 10.5634 14.2767 10.7632C14.2767 11.2845 14.6375 11.632 15.1378 11.632C15.4823 11.632 15.753 11.493 15.9662 11.1976C16.4747 10.4071 16.9914 10.1204 17.787 10.1204C18.7958 10.1204 19.4109 10.6764 19.4109 11.6406V12.3009L17.1063 12.4399C14.9902 12.5789 13.801 13.5605 13.801 15.1937C13.801 16.853 15.023 17.9737 16.7044 17.9737C17.828 17.9737 18.9188 17.3569 19.4191 16.3578H19.4601V17.0007C19.4929 17.6435 19.8784 17.9997 20.4361 17.9997ZM17.3277 16.3405C16.4419 16.3405 15.8432 15.8627 15.8432 15.1069C15.8432 14.3771 16.4091 13.908 17.3933 13.8385L19.4109 13.7082V14.4119C19.4109 15.5239 18.4759 16.3405 17.3277 16.3405Z"/>
        </symbol>

        <symbol id="user_add_outline_24">
            <path d="M18.85 7.95078C18.85 6.37596 17.5748 5.10078 16 5.10078C14.4252 5.10078 13.15 6.37596 13.15 7.95078C13.15 9.5256 14.4252 10.8008 16 10.8008C17.5748 10.8008 18.85 9.5256 18.85 7.95078ZM20.65 7.95078C20.65 10.5197 18.5689 12.6008 16 12.6008C13.4311 12.6008 11.35 10.5197 11.35 7.95078C11.35 5.38185 13.4311 3.30078 16 3.30078C18.5689 3.30078 20.65 5.38185 20.65 7.95078ZM9.9 18.4293C9.9 19.1982 9.80923 19.1008 10.2353 19.1008H21.7647C22.1908 19.1008 22.1 19.1982 22.1 18.4293C22.1 16.5368 19.3218 15.4008 16 15.4008C12.6782 15.4008 9.9 16.5368 9.9 18.4293ZM16 13.6008C20.2272 13.6008 23.9 15.1026 23.9 18.4293C23.9 20.165 23.2145 20.9008 21.7647 20.9008H10.2353C8.78554 20.9008 8.1 20.165 8.1 18.4293C8.1 15.1026 11.7728 13.6008 16 13.6008ZM5 6.50078C5.49706 6.50078 5.9 6.90373 5.9 7.40078L5.899 10.1008L8.6 10.1008C9.09706 10.1008 9.5 10.5037 9.5 11.0008C9.5 11.4978 9.09706 11.9008 8.6 11.9008H5.899L5.9 14.6008C5.9 15.0978 5.49706 15.5008 5 15.5008C4.50294 15.5008 4.1 15.0978 4.1 14.6008L4.099 11.9008H1.4C0.902944 11.9008 0.5 11.4978 0.5 11.0008C0.5 10.5037 0.902944 10.1008 1.4 10.1008L4.099 10.1008L4.1 7.40078C4.1 6.90373 4.50294 6.50078 5 6.50078Z"/>
        </symbol>

        <symbol id="view_outline_24">
            <path d="M12.0001 4.59961C17.1998 4.59961 22.4001 8.83688 22.4001 11.9996C22.4001 15.1623 17.1998 19.3996 12.0001 19.3996C6.80038 19.3996 1.6001 15.1623 1.6001 11.9996C1.6001 8.83688 6.80038 4.59961 12.0001 4.59961ZM12.0001 6.39961C7.72254 6.39961 3.4001 9.9216 3.4001 11.9996C3.4001 14.0776 7.72254 17.5996 12.0001 17.5996C16.2777 17.5996 20.6001 14.0776 20.6001 11.9996C20.6001 9.9216 16.2777 6.39961 12.0001 6.39961ZM12.0001 8.59961C13.8779 8.59961 15.4001 10.1218 15.4001 11.9996C15.4001 13.8774 13.8779 15.3996 12.0001 15.3996C10.1223 15.3996 8.6001 13.8774 8.6001 11.9996C8.6001 10.1218 10.1223 8.59961 12.0001 8.59961ZM12.0001 10.3996C11.1164 10.3996 10.4001 11.116 10.4001 11.9996C10.4001 12.8833 11.1164 13.5996 12.0001 13.5996C12.8838 13.5996 13.6001 12.8833 13.6001 11.9996C13.6001 11.116 12.8838 10.3996 12.0001 10.3996Z"/>
        </symbol>

        <!--       //////////////////////////////////////////////////////      -->

        <symbol id="home_outline_20" viewBox="0 0 20 20">
            <path d="M3.00009 10.9996L2.95933 10.9995L2.77798 10.9885C2.2622 10.9322 1.78623 10.6816 1.44762 10.2866C0.712693 9.42916 0.811988 8.13832 1.6694 7.4034L8.21042 1.79681C9.24026 0.914084 10.7599 0.914084 11.7898 1.79681L18.3308 7.4034C18.784 7.79186 19.0448 8.35897 19.0448 8.95588C19.0448 10.0852 18.1294 11.0006 17.0001 11.0006V15.2506C17.0001 16.4933 15.9927 17.5006 14.7501 17.5006H11.9501C11.4254 17.5006 11.0001 17.0753 11.0001 16.5506V13.5006C11.0001 12.9483 10.5524 12.5006 10.0001 12.5006C9.44781 12.5006 9.00009 12.9483 9.00009 13.5006V16.5506C9.00009 17.0753 8.57476 17.5006 8.05009 17.5006H5.25009C4.00745 17.5006 3.00009 16.4933 3.00009 15.2506V10.9996ZM14.7501 16.0006C15.1643 16.0006 15.5001 15.6648 15.5001 15.2506V10.3506C15.5001 9.88117 15.8807 9.50061 16.3501 9.50061H17.0001C17.3009 9.50061 17.5448 9.25672 17.5448 8.95588C17.5448 8.79685 17.4753 8.64577 17.3546 8.54228L10.8136 2.93569C10.3455 2.53446 9.65472 2.53446 9.1866 2.93569L2.64559 8.54228C2.41716 8.73807 2.39071 9.08196 2.5865 9.31038C2.67671 9.41562 2.80353 9.48239 2.90019 9.49406L3.00009 9.50061H3.65009C4.11954 9.50061 4.50009 9.88117 4.50009 10.3506V15.2506C4.50009 15.6648 4.83588 16.0006 5.25009 16.0006H7.50009V13.5006C7.50009 12.1199 8.61938 11.0006 10.0001 11.0006C11.3808 11.0006 12.5001 12.1199 12.5001 13.5006V16.0006H14.7501Z"/>
        </symbol>
        <symbol id="user_outline_20">
            <path d="M12.5 5C12.5 3.61859 11.3814 2.5 10 2.5C8.61859 2.5 7.5 3.61859 7.5 5C7.5 6.38141 8.61859 7.5 10 7.5C11.3814 7.5 12.5 6.38141 12.5 5ZM14 5C14 7.20984 12.2098 9 10 9C7.79016 9 6 7.20984 6 5C6 2.79016 7.79016 1 10 1C12.2098 1 14 2.79016 14 5ZM4 15.5C4 16.2152 4.35765 16.5 5 16.5H15C15.6423 16.5 16 16.2152 16 15.5C16 13.1666 13.4334 12 10 12C6.56661 12 4 13.1666 4 15.5ZM2.5 15.5C2.5 12.0152 5.83339 10.5 10 10.5C14.1666 10.5 17.5 12.0152 17.5 15.5C17.5 17.1283 16.4053 18 15 18H5C3.59467 18 2.5 17.1283 2.5 15.5Z"/>
        </symbol>
        <symbol id="work_outline_20">
            <path d="M10.7951 2C11.9095 2 12.3136 2.11603 12.7211 2.33392C13.1285 2.5518 13.4482 2.87154 13.6661 3.27894C13.8694 3.65919 13.9841 4.03656 13.9985 4.99124L14 5.5H15.3635C16.3959 5.5 16.8137 5.61603 17.2211 5.83392C17.6285 6.0518 17.9482 6.37154 18.1661 6.77894C18.384 7.18635 18.5 7.60413 18.5 8.63651V10.4361C18.5 11.3276 18.4072 11.6509 18.2329 11.9768C18.063 12.2945 17.8158 12.5455 17.5016 12.7194L17.5 14.25C17.5 15.983 16.1435 17.3992 14.4344 17.4949L14.25 17.5H5.75C4.01697 17.5 2.60075 16.1435 2.50514 14.4344L2.5 14.25V12.718L2.36609 12.639C2.11423 12.4713 1.91239 12.2485 1.76713 11.9768C1.60623 11.676 1.51476 11.3774 1.50164 10.632L1.5 8.63651C1.5 7.60413 1.61603 7.18635 1.83392 6.77894C2.0518 6.37154 2.37154 6.0518 2.77894 5.83392C3.15725 5.63159 3.5445 5.5171 4.42447 5.50177L6 5.501V5.20486C6 4.09046 6.11603 3.68635 6.33392 3.27894C6.5518 2.87154 6.87154 2.5518 7.27894 2.33392C7.65919 2.13056 8.03656 2.01592 8.99124 2.00154L10.7951 2ZM16.0022 12.9998L4 12.999V14.25C4 15.1682 4.70711 15.9212 5.60647 15.9942L5.75 16H14.25C15.1682 16 15.9212 15.2929 15.9942 14.3935L16 14.25L16.0022 12.9998ZM15.5334 7.00091H4.46658L4.15804 7.00968C3.80056 7.02792 3.64228 7.07324 3.48634 7.15664C3.34034 7.23472 3.23472 7.34034 3.15664 7.48634C3.05239 7.68126 3.00764 7.87985 3.00091 8.46658L3.00061 10.5849L3.0057 10.822C3.01354 11.0229 3.02996 11.1237 3.05793 11.1993L3.08985 11.2694C3.12436 11.334 3.16603 11.3756 3.23055 11.4101L3.30065 11.4421C3.41418 11.484 3.58413 11.5 4.06389 11.5H15.9361C16.4159 11.5 16.5858 11.484 16.6993 11.4421L16.7694 11.4101C16.834 11.3756 16.8756 11.334 16.9101 11.2694L16.9421 11.1993C16.984 11.0858 17 10.9159 17 10.4361V8.63651C17 7.91599 16.9571 7.69899 16.8434 7.48634C16.7653 7.34034 16.6597 7.23472 16.5137 7.15664C16.3187 7.05239 16.1201 7.00764 15.5334 7.00091ZM10.9674 3.50075H9.03262L8.71519 3.50809C8.39251 3.52151 8.2248 3.5526 8.08792 3.60848L7.98634 3.65664C7.84034 3.73472 7.73472 3.84034 7.65664 3.98634L7.60848 4.08792C7.53663 4.2639 7.50576 4.49086 7.50075 5.03262L7.5 5.5H12.5L12.4993 5.03262L12.4919 4.71519C12.4785 4.39251 12.4474 4.2248 12.3915 4.08792L12.3434 3.98634C12.2653 3.84034 12.1597 3.73472 12.0137 3.65664L11.9121 3.60848C11.7361 3.53663 11.5091 3.50576 10.9674 3.50075Z"/>
        </symbol>
        <symbol id="users_outline_20">
            <path fill-rule="evenodd" clip-rule="evenodd"
                  d="M6.25 3.5C4.59315 3.5 3.25 4.84315 3.25 6.5C3.25 8.15685 4.59315 9.5 6.25 9.5C7.90685 9.5 9.25 8.15685 9.25 6.5C9.25 4.84315 7.90685 3.5 6.25 3.5ZM4.75 6.5C4.75 7.32843 5.42157 8 6.25 8C7.07843 8 7.75 7.32843 7.75 6.5C7.75 5.67157 7.07843 5 6.25 5C5.42157 5 4.75 5.67157 4.75 6.5Z"/>
            <path fill-rule="evenodd" clip-rule="evenodd"
                  d="M2.68771 11.5691C3.64786 11.0152 4.91372 10.75 6.25 10.75C7.58628 10.75 8.85214 11.0152 9.81229 11.5691C10.7892 12.1327 11.5 13.037 11.5 14.25C11.5 14.9572 11.2245 15.5559 10.7185 15.9607C10.2351 16.3474 9.61439 16.5 9 16.5H3.5C2.88561 16.5 2.26489 16.3474 1.78148 15.9607C1.27554 15.5559 1 14.9572 1 14.25C1 13.037 1.71083 12.1327 2.68771 11.5691ZM3.43729 12.8684C2.78917 13.2423 2.5 13.713 2.5 14.25C2.5 14.5428 2.59946 14.6941 2.71852 14.7893C2.86011 14.9026 3.11439 15 3.5 15H9C9.38561 15 9.63989 14.9026 9.78148 14.7893C9.90054 14.6941 10 14.5428 10 14.25C10 13.713 9.71083 13.2423 9.06271 12.8684C8.39786 12.4848 7.41372 12.25 6.25 12.25C5.08628 12.25 4.10214 12.4848 3.43729 12.8684Z"/>
            <path fill-rule="evenodd" clip-rule="evenodd"
                  d="M13.75 3.5C12.0931 3.5 10.75 4.84315 10.75 6.5C10.75 8.15685 12.0931 9.5 13.75 9.5C15.4069 9.5 16.75 8.15685 16.75 6.5C16.75 4.84315 15.4069 3.5 13.75 3.5ZM12.25 6.5C12.25 7.32843 12.9216 8 13.75 8C14.5784 8 15.25 7.32843 15.25 6.5C15.25 5.67157 14.5784 5 13.75 5C12.9216 5 12.25 5.67157 12.25 6.5Z"/>
            <path d="M13.75 12.25C13.523 12.25 13.2965 12.2611 13.0732 12.283C12.661 12.3235 12.294 12.0221 12.2536 11.6098C12.2131 11.1976 12.5145 10.8306 12.9268 10.7902C13.1988 10.7635 13.4742 10.75 13.75 10.75C15.0863 10.75 16.3521 11.0152 17.3123 11.5691C18.2892 12.1327 19 13.037 19 14.25C19 14.9572 18.7245 15.5559 18.2185 15.9607C17.7351 16.3474 17.1144 16.5 16.5 16.5H13.5C13.0858 16.5 12.75 16.1642 12.75 15.75C12.75 15.3358 13.0858 15 13.5 15H16.5C16.8856 15 17.1399 14.9026 17.2815 14.7893C17.4005 14.6941 17.5 14.5428 17.5 14.25C17.5 13.713 17.2108 13.2423 16.5627 12.8684C15.8979 12.4848 14.9137 12.25 13.75 12.25Z"/>
        </symbol>
        <symbol id="favorite_outline_20">
            <path fill-rule="evenodd" clip-rule="evenodd"
                  d="M10.4077 3.13396C10.148 3.00371 9.84221 3.00371 9.58256 3.13396C9.53404 3.1583 9.3937 3.26485 9.13967 3.73186C8.89595 4.1799 8.61833 4.81845 8.22116 5.73466C8.06054 6.10518 7.89402 6.47373 7.73924 6.84672C7.71881 6.89596 7.65463 7.05064 7.54311 7.17901C7.45137 7.28461 7.33898 7.37027 7.21289 7.4307C7.0451 7.51112 6.86204 7.52842 6.82886 7.5331L6.14685 7.62943C5.15404 7.76964 4.4616 7.86819 3.9628 7.98471C3.44257 8.10625 3.30223 8.21384 3.2661 8.25405C3.07151 8.4706 2.99061 8.76647 3.04792 9.05203C3.05856 9.10506 3.12461 9.26919 3.51051 9.63897C3.88051 9.9935 4.42632 10.4313 5.20943 11.058L5.45829 11.2572C5.48599 11.2794 5.64534 11.3946 5.75229 11.5612C5.83255 11.6862 5.88466 11.8272 5.90502 11.9744C5.9298 12.1536 5.89353 12.3288 5.88203 12.3843C5.85332 12.5229 5.82909 12.6626 5.80271 12.8017C5.58445 13.9525 5.43089 14.7659 5.36964 15.3628C5.30446 15.998 5.37256 16.1842 5.39606 16.2227C5.55597 16.4852 5.83605 16.6505 6.14287 16.6637C6.18797 16.6656 6.38363 16.6352 6.9075 16.2708C7.3998 15.9284 8.03665 15.4004 8.93726 14.6525C9.04241 14.5652 9.14763 14.4779 9.25271 14.3905C9.29061 14.359 9.34623 14.3127 9.40036 14.2742C9.46676 14.227 9.5724 14.1603 9.71529 14.1196C9.89822 14.0675 10.092 14.0675 10.2749 14.1196C10.4178 14.1603 10.5235 14.227 10.5899 14.2742C10.644 14.3127 10.6996 14.359 10.7375 14.3905L11.053 14.6525C11.9536 15.4004 12.5904 15.9284 13.0827 16.2708C13.6066 16.6352 13.8023 16.6656 13.8474 16.6637C14.1542 16.6505 14.4343 16.4852 14.5942 16.2227C14.6177 16.1842 14.6858 15.998 14.6206 15.3628C14.5593 14.7659 14.4058 13.9525 14.1875 12.8017C14.1611 12.6626 14.1369 12.5229 14.1082 12.3843C14.0967 12.3288 14.0604 12.1536 14.0852 11.9744C14.1056 11.8272 14.1577 11.6862 14.2379 11.5612C14.3449 11.3946 14.5042 11.2794 14.5319 11.2572L14.7808 11.058C15.5639 10.4313 16.1097 9.9935 16.4797 9.63897C16.8656 9.26919 16.9317 9.10506 16.9423 9.05203C16.9996 8.76647 16.9187 8.4706 16.7241 8.25405C16.688 8.21384 16.5477 8.10625 16.0274 7.98471C15.5286 7.86819 14.8362 7.76965 13.8434 7.62943C13.6122 7.59677 13.3812 7.56057 13.1495 7.53157C13.0967 7.52495 12.9306 7.50417 12.7773 7.4307C12.6513 7.37027 12.5389 7.28461 12.4471 7.17901C12.3251 7.0385 12.2597 6.86646 12.2464 6.83569L11.7691 5.73466C11.3719 4.81845 11.0943 4.1799 10.8506 3.73186C10.5965 3.26485 10.4562 3.1583 10.4077 3.13396ZM8.89495 1.7605C9.58736 1.41317 10.4029 1.41317 11.0953 1.7605C11.595 2.01117 11.9243 2.49324 12.1985 2.9972C12.479 3.51298 12.7835 4.2154 13.1612 5.0868L13.5744 6.03995L14.097 6.11375C15.0415 6.24714 15.8025 6.35461 16.3762 6.48864C16.9364 6.61951 17.4904 6.8096 17.8652 7.22665C18.3841 7.80412 18.5998 8.59312 18.447 9.35461C18.3366 9.90458 17.9565 10.3506 17.541 10.7487C17.1154 11.1565 16.5151 11.6369 15.7702 12.2331L15.6588 12.3223L15.7027 12.554C15.912 13.6573 16.0785 14.5355 16.1473 15.2058C16.213 15.8457 16.2195 16.5056 15.9044 17.0227C15.478 17.7225 14.7311 18.1635 13.9129 18.1986C13.3084 18.2244 12.7347 17.8995 12.2069 17.5324C11.6541 17.1479 10.9668 16.5771 10.1034 15.86L9.99512 15.7701L9.88688 15.86C9.0234 16.5771 8.3361 17.1479 7.78329 17.5324C7.25558 17.8995 6.68183 18.2244 6.0773 18.1986C5.25911 18.1635 4.51222 17.7225 4.08579 17.0227C3.77072 16.5056 3.77727 15.8457 3.84293 15.2058C3.91172 14.5355 4.07828 13.6573 4.28754 12.554L4.33147 12.3223L4.2201 12.2332C3.47512 11.637 2.87483 11.1565 2.44924 10.7487C2.03369 10.3506 1.65362 9.90458 1.54324 9.35461C1.39042 8.59312 1.60614 7.80412 2.12505 7.22665C2.49982 6.8096 3.05379 6.61951 3.614 6.48864C4.18774 6.35461 4.94876 6.24714 5.89323 6.11375L6.41581 6.03995L6.82901 5.08678C7.20674 4.21539 7.51122 3.51298 7.79178 2.9972C8.06591 2.49324 8.39524 2.01117 8.89495 1.7605Z"/>
        </symbol>
        <symbol id="square_split_4_outline_20">
            <path fill-rule="evenodd" clip-rule="evenodd"
                  d="M8.31739 2H11.6826C12.6351 1.99999 13.3956 1.99999 14.0099 2.05018C14.6399 2.10165 15.1818 2.20963 15.6795 2.46322C16.4791 2.87068 17.1293 3.52085 17.5368 4.32054C17.7904 4.81824 17.8984 5.36012 17.9498 5.99013C18 6.60438 18 7.3649 18 8.3173V8.31737V11.6826V11.6827C18 12.6351 18 13.3956 17.9498 14.0099C17.8984 14.6399 17.7904 15.1818 17.5368 15.6795C17.1293 16.4791 16.4791 17.1293 15.6795 17.5368C15.1818 17.7904 14.6399 17.8984 14.0099 17.9498C13.3956 18 12.6351 18 11.6827 18H11.6826H8.31737H8.3173C7.3649 18 6.60438 18 5.99013 17.9498C5.36012 17.8984 4.81824 17.7904 4.32054 17.5368C3.52085 17.1293 2.87068 16.4791 2.46322 15.6795C2.20963 15.1818 2.10165 14.6399 2.05018 14.0099C1.99999 13.3956 1.99999 12.6351 2 11.6826V8.31739C1.99999 7.36494 1.99999 6.6044 2.05018 5.99013C2.10165 5.36012 2.20963 4.81824 2.46322 4.32054C2.87068 3.52085 3.52085 2.87068 4.32054 2.46322C4.81824 2.20963 5.36012 2.10165 5.99013 2.05018C6.6044 1.99999 7.36494 1.99999 8.31739 2ZM6.11228 3.54519C5.57503 3.58909 5.25252 3.67184 5.00153 3.79973C4.48408 4.06338 4.06338 4.48408 3.79973 5.00153C3.67184 5.25252 3.58909 5.57503 3.54519 6.11228C3.50058 6.65829 3.5 7.35753 3.5 8.35V9.25H9.25V3.5H8.35C7.35753 3.5 6.65829 3.50058 6.11228 3.54519ZM9.25 10.75H3.5V11.65C3.5 12.6425 3.50058 13.3417 3.54519 13.8877C3.58909 14.425 3.67184 14.7475 3.79973 14.9985C4.06338 15.5159 4.48408 15.9366 5.00153 16.2003C5.25252 16.3282 5.57503 16.4109 6.11228 16.4548C6.65829 16.4994 7.35753 16.5 8.35 16.5H9.25V10.75ZM10.75 10.75H16.5V11.65C16.5 12.6425 16.4994 13.3417 16.4548 13.8877C16.4109 14.425 16.3282 14.7475 16.2003 14.9985C15.9366 15.5159 15.5159 15.9366 14.9985 16.2003C14.7475 16.3282 14.425 16.4109 13.8877 16.4548C13.3417 16.4994 12.6425 16.5 11.65 16.5H10.75V10.75ZM16.5 9.25H10.75V3.5H11.65C12.6425 3.5 13.3417 3.50058 13.8877 3.54519C14.425 3.58909 14.7475 3.67184 14.9985 3.79973C15.5159 4.06338 15.9366 4.48408 16.2003 5.00153C16.3282 5.25252 16.4109 5.57503 16.4548 6.11228C16.4994 6.65829 16.5 7.35753 16.5 8.35V9.25Z"/>
        </symbol>
        <symbol id="table_header_outline_20">
            <path fill-rule="evenodd" clip-rule="evenodd"
                  d="M8.3 3C5.91978 3 4.72967 3 3.82054 3.46322C3.52687 3.61285 3.25162 3.79684 3 4.00963C2.5735 4.37159 2.22012 4.81635 1.96322 5.32054C1.5 6.22967 1.5 7.41978 1.5 9.8V10.2C1.5 12.5802 1.5 13.7703 1.96322 14.6795C2.37068 15.4791 3.02085 16.1293 3.82054 16.5368C4.72967 17 5.91978 17 8.3 17H11.7C14.0802 17 15.2703 17 16.1795 16.5368C16.9791 16.1293 17.6293 15.4791 18.0368 14.6795C18.5 13.7703 18.5 12.5802 18.5 10.2V9.8C18.5 7.41978 18.5 6.22967 18.0368 5.32054C17.7799 4.81635 17.4265 4.37159 17 4.00963C16.7484 3.79684 16.4731 3.61285 16.1795 3.46322C15.2703 3 14.0802 3 11.7 3H8.3ZM9.25 7H3.06465C3.06053 7.04197 3.05662 7.08552 3.05292 7.13076C3.00117 7.7642 3 8.58514 3 9.8L3.00005 10.5H9.25V7ZM10.75 7V10.5H16.9999L17 9.8C17 8.58514 16.9988 7.7642 16.9471 7.13076C16.9434 7.08552 16.9395 7.04197 16.9354 7H10.75ZM9.25 12H3.0118C3.01946 12.3291 3.03209 12.6143 3.05292 12.8692C3.10325 13.4852 3.19382 13.7906 3.29973 13.9985C3.56338 14.5159 3.98408 14.9366 4.50153 15.2003C4.70939 15.3062 5.01482 15.3968 5.63076 15.4471C6.2642 15.4988 7.08514 15.5 8.3 15.5H9.25V12ZM10.75 15.5V12H16.9882C16.9805 12.3291 16.9679 12.6143 16.9471 12.8692C16.8968 13.4852 16.8062 13.7906 16.7003 13.9985C16.4366 14.5159 16.0159 14.9366 15.4985 15.2003C15.2906 15.3062 14.9852 15.3968 14.3692 15.4471C13.7358 15.4988 12.9149 15.5 11.7 15.5H10.75Z"/>
        </symbol>
        <symbol id="flash_outline_20">
            <path fill-rule="evenodd" clip-rule="evenodd"
                  d="M12.7533 4.04455L11.9405 7.34491L13.8637 7.69544C14.818 7.8565 15.6788 8.31143 15.9325 9.22073C16.1889 10.1396 15.6832 11.0561 15.1122 11.7419L10.0316 17.4867C9.70319 17.8405 9.36954 18.1277 9.03987 18.3034C8.73616 18.4653 8.24309 18.6279 7.77143 18.3551C7.3105 18.0884 7.19323 17.5895 7.16874 17.2468C7.14187 16.8708 7.20313 16.4276 7.32468 15.9456C7.3246 15.9459 7.32475 15.9453 7.32468 15.9456L8.16056 12.6008L6.34907 12.2812C5.42971 12.1236 4.5096 11.6915 4.1459 10.827C3.76139 9.91306 4.1594 8.93206 4.94974 8.06897C5.41311 7.56296 5.9006 7.07891 6.3645 6.5731C7.20199 5.65993 8.42762 4.30803 10.0423 2.51638C10.353 2.16643 10.677 1.87984 11.0043 1.70247C11.3102 1.53674 11.7913 1.38034 12.2593 1.632C12.726 1.88302 12.8646 2.37103 12.898 2.72636C12.9337 3.10725 12.8761 3.55584 12.7533 4.04455ZM11.3796 3.28683C11.3122 3.35146 11.2397 3.4269 11.1624 3.51402C9.94671 4.88467 8.70831 6.23673 7.46997 7.58697C7.17197 7.91189 6.69767 8.41333 6.05036 9.08815C5.42212 9.77675 5.4825 10.1359 5.52853 10.2453C5.68514 10.6176 6.26231 10.7445 6.60612 10.8034L8.93815 11.2148C9.50039 11.314 9.88773 11.8763 9.74406 12.4512L8.77932 16.3117C8.74247 16.4577 8.71541 16.5881 8.69665 16.7031C8.76753 16.6373 8.84416 16.5608 8.92623 16.4727L13.9734 10.7653C14.5036 10.1255 14.5237 9.75277 14.4877 9.62385C14.4664 9.54756 14.3403 9.29618 13.6104 9.1739L11.1597 8.72732C10.5958 8.62455 10.2215 8.05215 10.3586 7.49527L11.2985 3.67881C11.3355 3.53156 11.362 3.40109 11.3796 3.28683Z"/>
        </symbol>
        <symbol id="notification_outline_20">
            <path fill-rule="evenodd" clip-rule="evenodd"
                  d="M5.50018 8C5.50018 5.51472 7.5149 3.5 10.0002 3.5C12.4827 3.5 14.4957 5.51019 14.5002 7.99162V9.66584C14.5002 9.96302 14.6061 10.2505 14.7988 10.4767L16.3217 12.2635C16.7367 12.7504 16.3907 13.5 15.7509 13.5H4.24945C3.60968 13.5 3.26365 12.7504 3.67864 12.2635L5.20153 10.4767C5.3943 10.2505 5.50018 9.96302 5.50018 9.66584V8.00342C5.50018 8.00228 5.50018 8.00114 5.50018 8ZM4.01236 7.61463C4.21103 4.4805 6.81593 2 10.0002 2C13.1845 2 15.7894 4.48057 15.988 7.61476C15.996 7.65863 16.0002 7.70383 16.0002 7.75V7.99033C16.0002 7.99355 16.0002 7.99678 16.0002 8C16.0002 8.00114 16.0002 8.00228 16.0002 8.00342V9.57376L17.4633 11.2905C18.7083 12.7513 17.6702 15 15.7509 15H13.6752C13.3277 16.7117 11.8144 18 10.0002 18C8.18596 18 6.67264 16.7117 6.32519 15H4.24945C2.33014 15 1.29204 12.7513 2.53701 11.2905L4.00018 9.57376V7.75C4.00018 7.70378 4.00436 7.65854 4.01236 7.61463ZM10.0002 16.5C9.02051 16.5 8.18708 15.8739 7.8782 15H12.1221C11.8133 15.8739 10.9798 16.5 10.0002 16.5Z"/>
        </symbol>
        <symbol id="help_outline_20">
            <path d="M9.99998 6.25C9.41856 6.25 8.92812 6.64765 8.78931 7.18694C8.68607 7.58808 8.27718 7.82957 7.87604 7.72633C7.4749 7.62308 7.23341 7.2142 7.33666 6.81306C7.6419 5.62712 8.71756 4.75 9.99998 4.75C11.5188 4.75 12.75 5.98121 12.75 7.5C12.75 8.71116 12.0961 9.34041 11.6055 9.79829L11.5973 9.80593C11.1193 10.252 10.8253 10.5265 10.7425 11.1061C10.6839 11.5161 10.304 11.801 9.89393 11.7425C9.48388 11.6839 9.19896 11.304 9.25754 10.8939C9.41621 9.78322 10.0606 9.18547 10.5144 8.76451L10.582 8.70171C11.0289 8.28459 11.25 8.03884 11.25 7.5C11.25 6.80965 10.6903 6.25 9.99998 6.25Z"/>
            <path d="M10 15C10.5523 15 11 14.5523 11 14C11 13.4477 10.5523 13 10 13C9.44772 13 9 13.4477 9 14C9 14.5523 9.44772 15 10 15Z"/>
            <path fill-rule="evenodd" clip-rule="evenodd"
                  d="M10 1.5C5.30558 1.5 1.5 5.30558 1.5 10C1.5 14.6944 5.30558 18.5 10 18.5C14.6944 18.5 18.5 14.6944 18.5 10C18.5 5.30558 14.6944 1.5 10 1.5ZM3 10C3 13.866 6.13401 17 10 17C13.866 17 17 13.866 17 10C17 6.13401 13.866 3 10 3C6.13401 3 3 6.13401 3 10Z"/>
        </symbol>
        <symbol id="gear_outline_20">
            <path fill-rule="evenodd" clip-rule="evenodd"
                  d="M7.22176 3.37826L7.2313 3.34537C7.2754 3.1953 7.32478 3.05406 7.37982 2.92175C7.38717 2.90408 7.39463 2.88656 7.40218 2.86921C7.75981 2.04778 8.34587 1.58432 9.25627 1.50926L9.42194 1.5L10.6305 1.50075C11.6814 1.53329 12.3649 2.10837 12.7252 3.19249L12.7823 3.37788L12.8264 3.54386C12.8425 3.60779 12.8625 3.67585 12.8859 3.74653L12.9358 3.88444L12.9654 3.89915L13.0254 3.87942L13.1417 3.83513L13.2773 3.77643C13.3338 3.75028 13.3897 3.72555 13.4449 3.70226L13.4812 3.68716C13.6052 3.63607 13.7262 3.59225 13.8444 3.55576C13.8648 3.54948 13.885 3.54342 13.9052 3.53758C14.8374 3.26744 15.5903 3.4618 16.2244 4.15476L16.3333 4.28009L17.0469 5.15975C17.6829 5.99255 17.6636 6.88269 17.0432 7.84345L16.9343 8.00423L16.8324 8.14281C16.7917 8.1966 16.7502 8.25622 16.7089 8.32028L16.6473 8.41954L16.618 8.46922L16.6215 8.48653L16.7013 8.53886L16.8114 8.60499L16.9448 8.67711C18.1535 9.29057 18.6523 10.0973 18.4599 11.218L18.4277 11.3803L18.2153 12.296C18.0777 12.8887 17.9697 13.1692 17.5446 13.5542C17.237 13.8328 16.8971 13.9895 16.4863 14.0725L16.4753 14.0747C16.3379 14.1019 16.1926 14.121 16.038 14.1338L15.8466 14.1461L15.674 14.1516C15.6571 14.1519 15.6399 14.1524 15.6224 14.1531L15.6163 14.1533C15.5663 14.1553 15.5139 14.1589 15.4598 14.1639L15.3025 14.1824L15.3139 14.3057L15.3255 14.3886L15.3536 14.5432C15.4221 14.8646 15.4551 15.1606 15.4515 15.4326L15.4514 15.4447C15.437 16.2843 15.0719 16.8944 14.32 17.3141L14.1727 17.3914L13.1504 17.8852C12.2487 18.2885 11.4277 18.119 10.6664 17.4179C10.644 17.3972 10.6215 17.3761 10.5992 17.3545C10.5734 17.3296 10.5477 17.304 10.5221 17.2779L10.3891 17.1362L10.2762 17.0062C10.2322 16.9542 10.1826 16.9 10.1285 16.845L10.0442 16.7621L10.001 16.7223L9.92123 16.7978L9.82987 16.8913L9.72749 17.0062C8.89874 17.9873 8.02405 18.3395 6.96387 17.9293L6.81114 17.8655L5.89632 17.4233L5.62456 17.285C5.21034 17.0601 4.9779 16.8446 4.75075 16.3675C4.595 16.0404 4.53387 15.7171 4.54221 15.3561L4.54262 15.3405C4.54801 15.1519 4.57214 14.953 4.61147 14.7379L4.65012 14.5432L4.65108 14.5387C4.66452 14.475 4.6763 14.4061 4.68618 14.3334L4.70212 14.185L4.69864 14.1816L4.60843 14.1696L4.48097 14.1582L4.32967 14.1516C4.0124 14.1459 3.72535 14.1138 3.46764 14.0539L3.45635 14.0512C2.6186 13.8534 2.09275 13.3603 1.84763 12.5266L1.80499 12.3665L1.55128 11.2647C1.34675 10.239 1.75641 9.4473 2.73744 8.85424L2.90622 8.75723L3.0589 8.67711C3.11874 8.64674 3.18179 8.61152 3.24666 8.57227L3.38132 8.4848L3.3848 8.46835L3.33038 8.37499L3.26006 8.26667L3.17133 8.14281C3.13254 8.09155 3.09539 8.0406 3.05988 7.98994C2.9962 7.89912 2.9378 7.80924 2.88468 7.72024C2.34416 6.81451 2.35129 5.99911 2.93068 5.19712L3.0313 5.06512L3.74805 4.18795C4.43486 3.39611 5.31429 3.2298 6.38816 3.63354L6.56894 3.7061L6.72642 3.77643C6.78566 3.80386 6.85049 3.83088 6.91948 3.85693L7.03745 3.89829L7.06877 3.88358L7.09803 3.80687L7.13726 3.68749L7.17731 3.54386C7.19147 3.48754 7.20628 3.43234 7.22176 3.37826ZM11.4623 4.21897C11.4665 4.23163 11.4708 4.24424 11.4754 4.25678L11.5253 4.39469C11.6565 4.75748 11.9225 5.05575 12.2679 5.22753L12.2975 5.24225C12.6508 5.41792 13.059 5.44734 13.4338 5.32413L13.4939 5.3044C13.5159 5.29716 13.5378 5.2894 13.5594 5.28114L13.6757 5.23685C13.6965 5.22893 13.7171 5.22055 13.7375 5.21172L13.8731 5.15302C13.8847 5.14803 13.8961 5.14289 13.9075 5.1376C13.9489 5.11847 13.9888 5.10082 14.0274 5.08456C14.138 5.03794 14.2362 5.00337 14.3227 4.9783C14.5914 4.90042 14.7298 4.91843 14.7935 4.93526C14.8501 4.95021 14.9536 4.99136 15.1067 5.15546L15.1843 5.24479L15.8658 6.08472C16.0036 6.26993 16.0166 6.38018 16.0162 6.44399C16.0157 6.52789 15.9867 6.7108 15.7911 7.01732L15.7087 7.13886L15.6293 7.24692C15.5656 7.33163 15.505 7.41942 15.4481 7.50772L15.4349 7.52853L15.3732 7.62779L15.3652 7.64086L15.3543 7.65916L15.3251 7.70883C15.138 8.02696 15.0747 8.40289 15.1474 8.76471L15.1509 8.78202C15.2299 9.17529 15.4632 9.52053 15.7986 9.74061L15.8783 9.79295C15.895 9.80387 15.9118 9.81447 15.9289 9.82473L16.039 9.89085C16.0585 9.90256 16.0782 9.91382 16.0982 9.92462L16.2317 9.99674C16.243 10.0029 16.2544 10.0088 16.2659 10.0147C16.7224 10.2464 16.8858 10.4364 16.9424 10.5306C16.9782 10.5901 17.0255 10.6925 16.9842 10.9481L16.961 11.0647L16.7541 11.9571C16.6878 12.2424 16.6587 12.3072 16.6494 12.3257C16.6494 12.3257 16.6481 12.329 16.6399 12.3392C16.629 12.3527 16.6009 12.3851 16.5377 12.4424C16.4564 12.516 16.3718 12.566 16.1836 12.6033C16.115 12.6169 16.0311 12.6289 15.9269 12.6378L15.7744 12.6477L15.6356 12.6521L15.5645 12.6542C15.4836 12.6573 15.4024 12.6628 15.322 12.6702C15.3093 12.6714 15.2967 12.6727 15.2841 12.6742L15.1267 12.6928C14.3184 12.7881 13.7336 13.5107 13.8089 14.3212L13.8203 14.4444C13.8225 14.4676 13.8252 14.4907 13.8284 14.5137L13.84 14.5966C13.8428 14.6166 13.846 14.6366 13.8496 14.6565L13.8777 14.8112C13.8804 14.8261 13.8834 14.841 13.8865 14.8558C13.9369 15.0921 13.9535 15.2748 13.9517 15.413C13.949 15.6191 13.9064 15.7145 13.8785 15.761C13.8508 15.8071 13.7852 15.8923 13.6029 15.9964L13.4977 16.0517L12.5212 16.5232C12.3173 16.6115 12.2039 16.6052 12.1395 16.5928C12.0627 16.578 11.9107 16.5247 11.6826 16.3145C11.6569 16.2909 11.6305 16.2655 11.6033 16.2381L11.5027 16.1308L11.4146 16.0294C11.3453 15.9478 11.2722 15.8687 11.1977 15.793L11.1802 15.7755L11.0959 15.6926C11.0842 15.6811 11.0723 15.6697 11.0602 15.6586L11.017 15.6188C10.437 15.0848 9.54259 15.091 8.96997 15.6328L8.89022 15.7083C8.87605 15.7217 8.86214 15.7354 8.8485 15.7494L8.75713 15.8428C8.74097 15.8594 8.72518 15.8763 8.7098 15.8936L8.60742 16.0085C8.59869 16.0183 8.59009 16.0282 8.58162 16.0382C8.26729 16.4103 8.04995 16.5341 7.93629 16.5739C7.8632 16.5995 7.75271 16.6232 7.52056 16.5363L7.42705 16.4972L6.56296 16.0795L6.32484 15.9583C6.26624 15.926 6.23252 15.9042 6.21307 15.8904C6.20303 15.8833 6.19728 15.8786 6.19451 15.8763C6.19192 15.8741 6.19077 15.8729 6.19077 15.8729C6.19077 15.8729 6.18977 15.8719 6.18781 15.8695C6.18578 15.8669 6.18151 15.8614 6.17503 15.8516C6.16171 15.8315 6.13834 15.7925 6.10507 15.7227C6.05964 15.6272 6.03757 15.5386 6.04201 15.3833C6.04459 15.293 6.05668 15.1758 6.08513 15.018L6.11961 14.8444C6.14108 14.7421 6.15852 14.6384 6.17249 14.5357C6.17439 14.5217 6.1761 14.5077 6.17761 14.4936L6.19354 14.3452C6.24216 13.8926 6.08258 13.4423 5.75974 13.1214L5.75626 13.1179C5.52369 12.8867 5.22175 12.738 4.89666 12.6947L4.80645 12.6827C4.78494 12.6798 4.76336 12.6774 4.74174 12.6755L4.61428 12.6641C4.5917 12.6621 4.56907 12.6606 4.54643 12.6596L4.39513 12.653C4.38231 12.6525 4.36948 12.6521 4.35665 12.6518C4.1222 12.6476 3.94253 12.6243 3.80703 12.5928C3.59247 12.5429 3.50228 12.4769 3.46085 12.4379C3.42088 12.4003 3.3522 12.3185 3.29134 12.119L3.26103 12.0051L3.01886 10.9534C2.97695 10.7287 3.01336 10.6243 3.0423 10.5663C3.08043 10.4898 3.18847 10.3367 3.50083 10.1456L3.62874 10.0721L3.74798 10.0095C3.84162 9.96161 3.93388 9.90966 4.02319 9.85562C4.03685 9.84736 4.05037 9.83888 4.06376 9.83018L4.19842 9.74271C4.53228 9.52584 4.76623 9.18516 4.84874 8.79571L4.85223 8.77926C4.92944 8.41485 4.86829 8.03474 4.68069 7.71292L4.62626 7.61956C4.61419 7.59885 4.60162 7.57842 4.58856 7.55831L4.51825 7.44999C4.50574 7.43071 4.49279 7.41173 4.4794 7.39304L4.39067 7.26919C4.38308 7.2586 4.37535 7.24811 4.36749 7.23772C4.06016 6.83156 3.9982 6.59144 3.98901 6.48421C3.98322 6.41664 3.98539 6.30313 4.13715 6.08871L4.20887 5.99461L4.89325 5.15707C5.04688 4.98428 5.15513 4.94599 5.22388 4.93191C5.31225 4.91381 5.50255 4.90523 5.84644 5.03243L5.98353 5.08745L6.10656 5.1424C6.19952 5.1851 6.29471 5.2244 6.38973 5.26027C6.40084 5.26446 6.412 5.26852 6.4232 5.27245L6.54117 5.31381C6.91213 5.44387 7.31932 5.42311 7.67512 5.256L7.70645 5.24128C8.05803 5.07615 8.33185 4.78108 8.47028 4.41815L8.49954 4.34144C8.5079 4.31952 8.51575 4.29741 8.52307 4.27512L8.5623 4.15574C8.5694 4.13412 8.57602 4.11233 8.58213 4.09041L8.62218 3.94678C8.62563 3.9344 8.62893 3.92198 8.63206 3.90953C8.64241 3.86835 8.65301 3.8289 8.66383 3.79111C8.70048 3.66307 8.739 3.55638 8.77749 3.46798C8.87742 3.23844 8.96892 3.14896 9.01982 3.11092C9.06389 3.07799 9.15434 3.02511 9.36308 3.00563L9.46335 3.00003L10.603 3.00074C10.8374 3.01092 10.9357 3.07138 10.9885 3.11448C11.0562 3.16969 11.1809 3.30857 11.297 3.65151L11.3401 3.7915L11.3745 3.92077C11.4001 4.02129 11.4299 4.12133 11.4623 4.21897Z"/>
            <path fill-rule="evenodd" clip-rule="evenodd"
                  d="M10 11.5C10.8284 11.5 11.5 10.8284 11.5 10C11.5 9.17157 10.8284 8.5 10 8.5C9.17157 8.5 8.5 9.17157 8.5 10C8.5 10.8284 9.17157 11.5 10 11.5ZM10 13C11.6569 13 13 11.6569 13 10C13 8.34315 11.6569 7 10 7C8.34315 7 7 8.34315 7 10C7 11.6569 8.34315 13 10 13Z"/>
        </symbol>

        <symbol id="user_circle_outline_20">
            <path fill-rule="evenodd" clip-rule="evenodd"
                  d="M5.83516 15.6268C6.99901 16.4896 8.4399 17 10 17C11.5601 17 13.001 16.4896 14.1648 15.6268C12.9428 14.9106 11.5203 14.5 10 14.5C8.47974 14.5 7.05719 14.9106 5.83516 15.6268ZM4.69565 14.5679C3.63892 13.3419 3 11.7456 3 10C3 6.13401 6.13401 3 10 3C13.866 3 17 6.13401 17 10C17 11.7456 16.3611 13.3419 15.3043 14.5679C13.7774 13.5761 11.9549 13 10 13C8.04513 13 6.22264 13.5761 4.69565 14.5679ZM10 1.5C5.30558 1.5 1.5 5.30558 1.5 10C1.5 14.6944 5.30558 18.5 10 18.5C14.6944 18.5 18.5 14.6944 18.5 10C18.5 5.30558 14.6944 1.5 10 1.5ZM8.5 8.5C8.5 9.32843 9.17157 10 10 10C10.8284 10 11.5 9.32843 11.5 8.5C11.5 7.67157 10.8284 7 10 7C9.17157 7 8.5 7.67157 8.5 8.5ZM10 5.5C8.34315 5.5 7 6.84315 7 8.5C7 10.1569 8.34315 11.5 10 11.5C11.6569 11.5 13 10.1569 13 8.5C13 6.84315 11.6569 5.5 10 5.5Z"/>
        </symbol>

        <symbol id="money_circle_outline_20">
            <path fill-rule="evenodd" clip-rule="evenodd"
                  d="M10 17C6.13401 17 3 13.866 3 10C3 6.13401 6.13401 3 10 3C13.866 3 17 6.13401 17 10C17 13.866 13.866 17 10 17ZM1.5 10C1.5 5.30558 5.30558 1.5 10 1.5C14.6944 1.5 18.5 5.30558 18.5 10C18.5 14.6944 14.6944 18.5 10 18.5C5.30558 18.5 1.5 14.6944 1.5 10ZM8.75 6C8.33579 6 8 6.33579 8 6.75V9.75H7.75C7.33579 9.75 7 10.0858 7 10.5C7 10.9142 7.33579 11.25 7.75 11.25H8V12H7.75C7.33579 12 7 12.3358 7 12.75C7 13.1642 7.33579 13.5 7.75 13.5H8V14C8 14.4142 8.33579 14.75 8.75 14.75C9.16421 14.75 9.5 14.4142 9.5 14V13.5H11C11.4142 13.5 11.75 13.1642 11.75 12.75C11.75 12.3358 11.4142 12 11 12H9.5V11.25H11.125C12.5747 11.25 13.75 10.0747 13.75 8.625C13.75 7.17525 12.5747 6 11.125 6H8.75ZM11.125 9.75H9.5V7.5H11.125C11.7463 7.5 12.25 8.00368 12.25 8.625C12.25 9.24632 11.7463 9.75 11.125 9.75Z"/>
        </symbol>

        <symbol id="users_3_outline_20">
            <path fill-rule="evenodd" clip-rule="evenodd"
                  d="M10 7.75C9.30965 7.75 8.75 7.19036 8.75 6.5C8.75 5.80964 9.30965 5.25 10 5.25C10.6904 5.25 11.25 5.80964 11.25 6.5C11.25 7.19036 10.6904 7.75 10 7.75ZM7.25 6.5C7.25 4.98122 8.48122 3.75 10 3.75C11.5188 3.75 12.75 4.98122 12.75 6.5C12.75 8.01878 11.5188 9.25 10 9.25C8.48122 9.25 7.25 8.01878 7.25 6.5ZM6.75 13.75C6.75 13.334 6.98146 12.9219 7.54622 12.5781C8.11901 12.2295 8.97493 12 10 12C11.0251 12 11.881 12.2295 12.4538 12.5781C13.0186 12.9219 13.25 13.334 13.25 13.75C13.25 14.0428 13.1505 14.1941 13.0315 14.2893C12.8899 14.4026 12.6356 14.5 12.25 14.5H7.75C7.3644 14.5 7.11012 14.4026 6.96853 14.2893C6.84946 14.1941 6.75 14.0428 6.75 13.75ZM10 10.5C8.77508 10.5 7.631 10.7705 6.76629 11.2969C5.89355 11.8281 5.25 12.666 5.25 13.75C5.25 14.4572 5.52555 15.0559 6.03148 15.4607C6.51489 15.8474 7.13561 16 7.75 16H12.25C12.8644 16 13.4851 15.8474 13.9685 15.4607C14.4745 15.0559 14.75 14.4572 14.75 13.75C14.75 12.666 14.1065 11.8281 13.2337 11.2969C12.369 10.7705 11.2249 10.5 10 10.5ZM14.0059 4.91198C14.0642 4.50189 14.4439 4.21669 14.854 4.27498C16.0673 4.44743 17 5.48916 17 6.75001C17 8.13073 15.8807 9.25001 14.5 9.25001C14.0858 9.25001 13.75 8.91423 13.75 8.50001C13.75 8.0858 14.0858 7.75001 14.5 7.75001C15.0523 7.75001 15.5 7.3023 15.5 6.75001C15.5 6.24657 15.1273 5.82889 14.6429 5.76005C14.2328 5.70177 13.9476 5.32207 14.0059 4.91198ZM15.7488 10C15.3346 10 14.9988 10.3358 14.9988 10.75C14.9988 11.1642 15.3346 11.5 15.7488 11.5C16.9073 11.5 17.4999 12.1726 17.4999 12.75C17.4999 12.9664 17.4262 13.165 17.3144 13.2974C17.2144 13.4158 17.0714 13.5 16.85 13.5C16.4358 13.5 16.1 13.8358 16.1 14.25C16.1 14.6642 16.4358 15 16.85 15C18.2781 15 18.9999 13.7903 18.9999 12.75C18.9999 11.0384 17.3927 10 15.7488 10ZM5 10.75C5 10.3358 4.66422 10 4.25 10C2.60611 10 0.998901 11.0384 0.998901 12.75C0.998901 13.7903 1.72064 15 3.14878 15C3.563 15 3.89878 14.6642 3.89878 14.25C3.89878 13.8358 3.563 13.5 3.14878 13.5C2.92736 13.5 2.78439 13.4158 2.6844 13.2974C2.57256 13.165 2.4989 12.9664 2.4989 12.75C2.4989 12.1726 3.09146 11.5 4.25 11.5C4.66422 11.5 5 11.1642 5 10.75ZM5.14232 4.2755C5.55232 4.21661 5.93244 4.50123 5.99134 4.91124C6.05024 5.32124 5.76561 5.70136 5.35561 5.76026C4.87198 5.82974 4.5 6.24708 4.5 6.75001C4.5 7.3023 4.94772 7.75001 5.5 7.75001C5.91422 7.75001 6.25 8.0858 6.25 8.50001C6.25 8.91423 5.91422 9.25001 5.5 9.25001C4.11929 9.25001 3 8.13072 3 6.75001C3 5.49043 3.93081 4.44954 5.14232 4.2755Z"/>
        </symbol>

        <symbol id="users_3_outline_24">
            <path fill-rule="evenodd" clip-rule="evenodd"
                  d="M12.75 12.1504C12.75 9.2509 15.1005 6.90039 18 6.90039C20.8994 6.90039 23.25 9.2509 23.25 12.1504C23.25 15.0499 20.8994 17.4004 18 17.4004C15.1005 17.4004 12.75 15.0499 12.75 12.1504ZM18 14.7004C16.5916 14.7004 15.45 13.5587 15.45 12.1504C15.45 10.7421 16.5916 9.60039 18 9.60039C19.4083 9.60039 20.5499 10.7421 20.5499 12.1504C20.5499 13.5587 19.4083 14.7004 18 14.7004Z"
                  fill="black" fill-opacity="0.48"/>
            <path fill-rule="evenodd" clip-rule="evenodd"
                  d="M18.0005 19.6505C15.7445 19.6505 13.6122 20.1809 11.9974 21.173C10.3806 22.1663 9.15053 23.7264 9.15053 25.7325C9.15053 26.9467 9.56823 28.0311 10.4273 28.7967C11.2646 29.5429 12.3681 29.8505 13.5005 29.8505H22.5005C23.6329 29.8505 24.7364 29.5429 25.5737 28.7967C26.4328 28.0311 26.8505 26.9467 26.8505 25.7325C26.8505 23.7264 25.6205 22.1663 24.0036 21.173C22.3888 20.1809 20.2566 19.6505 18.0005 19.6505ZM11.8505 25.7325C11.8505 24.9565 12.3086 24.1507 13.4108 23.4735C14.515 22.7951 16.1327 22.3505 18.0005 22.3505C19.8683 22.3505 21.486 22.7951 22.5903 23.4735C23.6925 24.1507 24.1505 24.9565 24.1505 25.7325C24.1505 26.3113 23.9682 26.6109 23.7773 26.781C23.5646 26.9706 23.1681 27.1505 22.5005 27.1505H13.5005C12.8329 27.1505 12.4365 26.9706 12.2237 26.781C12.0328 26.6109 11.8505 26.3113 11.8505 25.7325Z"
                  fill="black" fill-opacity="0.48"/>
            <path d="M8.85508 20.5504C8.85508 19.8048 8.25066 19.2004 7.50508 19.2004C4.49495 19.2004 1.58008 21.1144 1.58008 24.2361C1.58008 26.1307 2.88531 28.3504 5.49073 28.3504C6.23632 28.3504 6.84073 27.746 6.84073 27.0004C6.84073 26.2548 6.23632 25.6504 5.49073 25.6504C5.08282 25.6504 4.816 25.4941 4.62773 25.2694C4.41795 25.0191 4.28008 24.6443 4.28008 24.2361C4.28008 23.1396 5.389 21.9004 7.50508 21.9004C8.25066 21.9004 8.85508 21.296 8.85508 20.5504Z"
                  fill="black" fill-opacity="0.48"/>
            <path d="M9.47175 8.189C10.2098 8.08355 10.8937 8.5964 10.9991 9.33449C11.1046 10.0726 10.5917 10.7564 9.85362 10.8619C8.94171 10.9921 8.25032 11.7718 8.25032 12.7001C8.25032 13.719 9.08282 14.5575 10.1253 14.5575C10.8709 14.5575 11.4753 15.1619 11.4753 15.9075C11.4753 16.6531 10.8709 17.2575 10.1253 17.2575C7.60558 17.2575 5.55032 15.224 5.55032 12.7001C5.55032 10.398 7.25977 8.50502 9.47175 8.189Z"
                  fill="black" fill-opacity="0.48"/>
            <path d="M27.1448 20.5504C27.1448 19.8048 27.7492 19.2004 28.4948 19.2004C31.505 19.2004 34.4198 21.1144 34.4198 24.2361C34.4198 26.1307 33.1146 28.3504 30.5092 28.3504C29.7636 28.3504 29.1592 27.746 29.1592 27.0004C29.1592 26.2548 29.7636 25.6504 30.5092 25.6504C30.9171 25.6504 31.1839 25.4941 31.3722 25.2694C31.5819 25.0191 31.7198 24.6443 31.7198 24.2361C31.7198 23.1396 30.6109 21.9004 28.4948 21.9004C27.7492 21.9004 27.1448 21.296 27.1448 20.5504Z"
                  fill="black" fill-opacity="0.48"/>
            <path d="M26.5289 8.189C25.7908 8.08355 25.107 8.5964 25.0015 9.33449C24.8961 10.0726 25.4089 10.7564 26.147 10.8619C27.0589 10.9921 27.7503 11.7718 27.7503 12.7001C27.7503 13.719 26.9178 14.5575 25.8753 14.5575C25.1297 14.5575 24.5253 15.1619 24.5253 15.9075C24.5253 16.6531 25.1297 17.2575 25.8753 17.2575C28.3951 17.2575 30.4503 15.224 30.4503 12.7001C30.4503 10.398 28.7409 8.50502 26.5289 8.189Z"
                  fill="black" fill-opacity="0.48"/>
        </symbol>

        <symbol id="door_arrow_right_outline_20">
            <path fill-rule="evenodd" clip-rule="evenodd"
                  d="M8.31739 2L9.25 2C9.66421 2 10 2.33579 10 2.75C10 3.16421 9.66421 3.5 9.25 3.5L8.35 3.5C7.35753 3.5 6.65829 3.50058 6.11228 3.54519C5.57503 3.58909 5.25252 3.67184 5.00152 3.79973C4.48408 4.06338 4.06338 4.48408 3.79973 5.00153C3.67184 5.25252 3.58909 5.57503 3.54519 6.11228C3.50058 6.65829 3.5 7.35753 3.5 8.35V11.65C3.5 12.6425 3.50058 13.3417 3.54519 13.8877C3.58909 14.425 3.67184 14.7475 3.79973 14.9985C4.06338 15.5159 4.48408 15.9366 5.00152 16.2003C5.25252 16.3282 5.57503 16.4109 6.11228 16.4548C6.65829 16.4994 7.35753 16.5 8.35 16.5H9.24536C9.65957 16.5 9.99536 16.8358 9.99536 17.25C9.99536 17.6642 9.65958 18 9.24536 18H8.31737C7.36493 18 6.60439 18 5.99013 17.9498C5.36012 17.8984 4.81824 17.7904 4.32054 17.5368C3.52085 17.1293 2.87068 16.4791 2.46322 15.6795C2.20963 15.1818 2.10165 14.6399 2.05017 14.0099C1.99999 13.3956 1.99999 12.6351 2 11.6826V8.31739C1.99999 7.36494 1.99999 6.6044 2.05017 5.99013C2.10165 5.36012 2.20963 4.81824 2.46322 4.32054C2.87068 3.52085 3.52085 2.87068 4.32054 2.46322C4.81823 2.20963 5.36012 2.10165 5.99013 2.05018C6.60439 1.99999 7.36494 1.99999 8.31739 2ZM14.2197 6.96967C14.5126 6.67678 14.9874 6.67678 15.2803 6.96967L17.7803 9.46965C17.921 9.6103 18 9.80107 18 9.99998C18 10.1989 17.921 10.3897 17.7803 10.5303L15.2803 13.0303C14.9874 13.3232 14.5126 13.3232 14.2197 13.0303C13.9268 12.7374 13.9268 12.2626 14.2197 11.9697L15.4393 10.75L8.75 10.75C8.33579 10.75 8 10.4142 8 10C8 9.58579 8.33578 9.25 8.75 9.25L15.4393 9.24999L14.2197 8.03033C13.9268 7.73744 13.9268 7.26257 14.2197 6.96967Z"/>
        </symbol>


        <symbol id="calendar_outline_24">
            <path d="M17 15.5C17 16.3284 16.3284 17 15.5 17C14.6715 17 14 16.3284 14 15.5C14 14.6715 14.6715 14 15.5 14C16.3284 14 17 14.6715 17 15.5Z"/>
            <path fill-rule="evenodd" clip-rule="evenodd"
                  d="M7.99998 1.5C8.49703 1.5 8.89998 1.90294 8.89998 2.4V3.00043C9.07971 3 9.26681 3 9.4616 3H14.5384C14.7332 3 14.9203 3 15.1 3.00043V2.4C15.1 1.90294 15.5029 1.5 16 1.5C16.497 1.5 16.9 1.90294 16.9 2.4V3.05299C17.5278 3.10616 18.0828 3.21729 18.5976 3.47957C19.4255 3.90141 20.0986 4.57453 20.5204 5.40244C20.7866 5.92481 20.8971 6.48863 20.9493 7.12792C21 7.74834 21 8.51409 21 9.46159V14.5384C21 15.4859 21 16.2517 20.9493 16.8721C20.8971 17.5114 20.7866 18.0752 20.5204 18.5976C20.0986 19.4255 19.4255 20.0986 18.5976 20.5204C18.0752 20.7866 17.5114 20.8971 16.8721 20.9493C16.2517 21 15.4859 21 14.5384 21H9.46159C8.51409 21 7.74834 21 7.12792 20.9493C6.48863 20.8971 5.92481 20.7866 5.40244 20.5204C4.57453 20.0986 3.90142 19.4255 3.47957 18.5976C3.21341 18.0752 3.10291 17.5114 3.05067 16.8721C2.99998 16.2517 2.99999 15.4859 3 14.5384V9.46159C2.99999 8.51409 2.99998 7.74834 3.05067 7.12792C3.10291 6.48863 3.21341 5.92481 3.47957 5.40244C3.90142 4.57453 4.57453 3.90141 5.40244 3.47957C5.91719 3.2173 6.47218 3.10616 7.09998 3.053V2.4C7.09998 1.90294 7.50292 1.5 7.99998 1.5ZM7.09998 4.86117C6.6779 4.90689 6.41974 4.98142 6.21963 5.08338C5.7304 5.33265 5.33265 5.7304 5.08338 6.21962C4.96807 6.44595 4.88783 6.74652 4.8447 7.2745C4.80848 7.7178 4.8016 8.26521 4.8003 9H19.1997C19.1984 8.26521 19.1915 7.7178 19.1553 7.2745C19.1122 6.74652 19.0319 6.44595 18.9166 6.21962C18.6673 5.7304 18.2696 5.33265 17.7804 5.08338C17.5803 4.98142 17.3221 4.90688 16.9 4.86117V5.6C16.9 6.09706 16.497 6.5 16 6.5C15.5029 6.5 15.1 6.09706 15.1 5.6V4.80052C14.9129 4.80003 14.7134 4.8 14.5 4.8H9.5C9.28655 4.8 9.08703 4.80003 8.89998 4.80052V5.6C8.89998 6.09706 8.49703 6.5 7.99998 6.5C7.50292 6.5 7.09998 6.09706 7.09998 5.6V4.86117ZM19.2 10.8H4.8V14.5C4.8 15.4949 4.8007 16.187 4.8447 16.7255C4.88783 17.2535 4.96807 17.5541 5.08338 17.7804C5.33265 18.2696 5.7304 18.6673 6.21963 18.9166C6.44595 19.0319 6.74652 19.1122 7.2745 19.1553C7.81298 19.1993 8.50506 19.2 9.5 19.2H14.5C15.4949 19.2 16.187 19.1993 16.7255 19.1553C17.2535 19.1122 17.5541 19.0319 17.7804 18.9166C18.2696 18.6673 18.6673 18.2696 18.9166 17.7804C19.0319 17.5541 19.1122 17.2535 19.1553 16.7255C19.1993 16.187 19.2 15.4949 19.2 14.5V10.8Z"/>
        </symbol>

        <symbol id="chevron_compact_right_24">
            <path fill-rule="evenodd" clip-rule="evenodd"
                  d="M4.79289 6.29289C4.40237 6.68342 4.40237 7.31658 4.79289 7.70711L9.08579 12L4.79289 16.2929C4.40237 16.6834 4.40237 17.3166 4.79289 17.7071C5.18342 18.0976 5.81658 18.0976 6.20711 17.7071L11.2071 12.7071C11.5976 12.3166 11.5976 11.6834 11.2071 11.2929L6.20711 6.29289C5.81658 5.90237 5.18342 5.90237 4.79289 6.29289Z"/>
        </symbol>


        <symbol id="download_outline_24">
            <path fill-rule="evenodd" clip-rule="evenodd"
                  d="M12 2C12.4971 2 12.9 2.40294 12.9 2.9V13.8272L17.4636 9.26361C17.8151 8.91214 18.3849 8.91214 18.7364 9.26361C19.0879 9.61508 19.0879 10.1849 18.7364 10.5364L12.6364 16.6364C12.2849 16.9879 11.7151 16.9879 11.3636 16.6364L5.26361 10.5364C4.91214 10.1849 4.91214 9.61508 5.26361 9.26361C5.61508 8.91214 6.18493 8.91214 6.5364 9.26361L11.1 13.8272V2.9C11.1 2.40294 11.5029 2 12 2ZM4 20C4 19.5029 4.40294 19.1 4.9 19.1H19.1C19.5971 19.1 20 19.5029 20 20C20 20.4971 19.5971 20.9 19.1 20.9H4.9C4.40294 20.9 4 20.4971 4 20Z"/>
        </symbol>

        <symbol id="cloud_arrow_up_outline_48">
            <svg width="44" height="44" viewBox="0 0 44 44" fill="none" xmlns="http://www.w3.org/2000/svg">
                <path d="M21.9925 39.6113L21.9925 17.1776M21.9925 17.1776L15.1692 24.2198M21.9925 17.1776L28.8064 24.2198"
                      stroke="#2688EB" stroke-width="3" stroke-linecap="round" stroke-linejoin="round"/>
                <path d="M14.0759 35.2057H11.6774C6.33273 35.2057 2 31.0143 2 25.844C2 21.9398 4.4705 18.5938 7.9817 17.1892C7.86652 16.5542 7.80645 15.9009 7.80645 15.2341C7.80645 9.02966 13.0057 4 19.4194 4C24.948 4 29.5742 7.73734 30.7457 12.7428C36.9934 12.9262 42 17.8833 42 23.9716C42 30.176 36.8007 35.2057 30.3871 35.2057H29.9013"
                      stroke="#2688EB" stroke-width="3" stroke-linecap="round" stroke-linejoin="round"/>
            </svg>
        </symbol>

        <symbol id="check_circle_outline_24">
            <path d="M12.4697 7.71969C12.7626 7.4268 13.2374 7.4268 13.5303 7.71969C13.8232 8.01258 13.8232 8.48746 13.5303 8.78035L9.69699 12.6137C9.4041 12.9066 8.92923 12.9066 8.63633 12.6137L6.46967 10.447C6.17677 10.1541 6.17677 9.67925 6.46967 9.38636C6.76256 9.09346 7.23743 9.09346 7.53033 9.38636L9.16666 11.0227L12.4697 7.71969Z"/>
            <path fill-rule="evenodd" clip-rule="evenodd"
                  d="M10 1.75C14.5559 1.75 18.25 5.44406 18.25 10C18.25 14.5559 14.5559 18.25 10 18.25C5.44407 18.25 1.75 14.5559 1.75 10C1.75 5.44407 5.44407 1.75 10 1.75ZM10 3.25C6.27167 3.25 3.25 6.27166 3.25 10C3.25 13.7283 6.27167 16.75 10 16.75C13.7283 16.75 16.75 13.7283 16.75 10C16.75 6.27166 13.7283 3.25 10 3.25Z"/>
        </symbol>


        <symbol id="snowflake_outline_24">
            <path d="M8.87572 2.25563C9.23375 1.91085 9.8035 1.92158 10.1483 2.27961L12.0001 4.20255L13.8518 2.27963C14.1966 1.92159 14.7663 1.91084 15.1244 2.25562C15.4824 2.6004 15.4932 3.17014 15.1484 3.52818L12.9001 5.86292V10.4389L16.8206 8.16287L17.6276 4.97894C17.7497 4.49712 18.2393 4.20553 18.7212 4.32765C19.203 4.44977 19.4946 4.93937 19.3724 5.42119L18.6899 8.1141L21.3355 8.83142C21.8153 8.9615 22.0987 9.45584 21.9687 9.93558C21.8386 10.4153 21.3443 10.6988 20.8645 10.5687L17.727 9.71802L13.7927 12.002L17.7265 14.2858L20.8636 13.4317C21.3432 13.3011 21.8378 13.5841 21.9684 14.0637C22.0989 14.5433 21.816 15.0379 21.3364 15.1685L18.7126 15.8828L19.4662 18.5558C19.6011 19.0342 19.3226 19.5314 18.8442 19.6663C18.3658 19.8011 17.8686 19.5227 17.7337 19.0442L16.8327 15.8482L12.9001 13.5652V18.1376L15.1488 20.4763C15.4933 20.8346 15.4821 21.4043 15.1238 21.7488C14.7655 22.0933 14.1958 22.0821 13.8513 21.7238L12.0001 19.7985L10.1488 21.7238C9.80423 22.0821 9.23449 22.0933 8.8762 21.7488C8.51792 21.4043 8.50676 20.8345 8.85128 20.4762L11.1001 18.1375V13.5647L7.17929 15.8395L6.3724 19.0213C6.25021 19.5031 5.76058 19.7946 5.27878 19.6725C4.79697 19.5503 4.50544 19.0606 4.62763 18.5788L5.31011 15.8876L2.66402 15.1686C2.18436 15.0382 1.90117 14.5437 2.0315 14.0641C2.16183 13.5844 2.65634 13.3012 3.136 13.4316L6.27339 14.284L10.2067 12.002L6.27295 9.71975L3.13506 10.5688C2.65526 10.6987 2.16105 10.415 2.03122 9.93516C1.90139 9.45536 2.1851 8.96115 2.6649 8.83132L5.31013 8.11555L4.62753 5.4211C4.50546 4.93927 4.79711 4.44971 5.27895 4.32764C5.76078 4.20558 6.25034 4.49723 6.37241 4.97906L7.17944 8.16467L11.1001 10.4394V5.86293L8.85174 3.5282C8.50695 3.17017 8.51769 2.60042 8.87572 2.25563Z"/>
        </symbol>

        <symbol id="lock_outline_24">
            <path fill-rule="evenodd" clip-rule="evenodd"
                  d="M12.0001 12.9996C12.5524 12.9996 13.0001 13.4473 13.0001 13.9996V15.9996C13.0001 16.5519 12.5524 16.9996 12.0001 16.9996C11.4478 16.9996 11.0001 16.5519 11.0001 15.9996V13.9996C11.0001 13.4473 11.4478 12.9996 12.0001 12.9996Z"/>
            <path fill-rule="evenodd" clip-rule="evenodd"
                  d="M18.7707 8.52468C18.1922 8.22995 17.5404 8.15203 16.9001 8.12175V6.99961C16.9001 4.29341 14.7063 2.09961 12.0001 2.09961C9.2939 2.09961 7.1001 4.29341 7.1001 6.99961V8.12175C6.45982 8.15203 5.80799 8.22995 5.22954 8.52468C4.4957 8.89859 3.89908 9.49521 3.52517 10.229C3.28626 10.6979 3.18938 11.2 3.14396 11.7559C3.10008 12.293 3.10009 12.9539 3.1001 13.7619V16.2373C3.10009 17.0454 3.10008 17.7062 3.14396 18.2433C3.18938 18.7992 3.28626 19.3013 3.52517 19.7702C3.89908 20.504 4.4957 21.1006 5.22954 21.4745C5.69843 21.7134 6.2005 21.8103 6.75642 21.8557C7.29349 21.8996 7.95434 21.8996 8.76239 21.8996H15.2378C16.0459 21.8996 16.7067 21.8996 17.2438 21.8557C17.7997 21.8103 18.3018 21.7134 18.7707 21.4745C19.5045 21.1006 20.1011 20.504 20.475 19.7702C20.7139 19.3013 20.8108 18.7992 20.8562 18.2433C20.9001 17.7062 20.9001 17.0454 20.9001 16.2373V13.7619C20.9001 12.9539 20.9001 12.293 20.8562 11.7559C20.8108 11.2 20.7139 10.6979 20.475 10.229C20.1011 9.49521 19.5045 8.89859 18.7707 8.52468ZM6.90299 9.93749C6.45839 9.97382 6.21957 10.0404 6.04672 10.1285C5.65158 10.3298 5.33032 10.6511 5.12898 11.0462C5.04091 11.2191 4.97431 11.4579 4.93798 11.9025C4.9008 12.3576 4.9001 12.9447 4.9001 13.7996V16.1996C4.9001 17.0545 4.9008 17.6416 4.93798 18.0967C4.97431 18.5413 5.04091 18.7801 5.12898 18.953C5.33032 19.3481 5.65158 19.6694 6.04672 19.8707C6.21957 19.9588 6.45839 20.0254 6.90299 20.0617C7.3581 20.0989 7.94517 20.0996 8.8001 20.0996H15.2001C16.055 20.0996 16.6421 20.0989 17.0972 20.0617C17.5418 20.0254 17.7806 19.9588 17.9535 19.8707C18.3486 19.6694 18.6699 19.3481 18.8712 18.953C18.9593 18.7801 19.0259 18.5413 19.0622 18.0967C19.0994 17.6416 19.1001 17.0545 19.1001 16.1996V13.7996C19.1001 12.9447 19.0994 12.3576 19.0622 11.9025C19.0259 11.4579 18.9593 11.2191 18.8712 11.0462C18.6699 10.6511 18.3486 10.3298 17.9535 10.1285C17.7806 10.0404 17.5418 9.97382 17.0972 9.93749C16.6421 9.90031 16.055 9.89961 15.2001 9.89961H8.8001C7.94517 9.89961 7.3581 9.90031 6.90299 9.93749ZM15.1001 6.99961C15.1001 5.28753 13.7122 3.89961 12.0001 3.89961C10.288 3.89961 8.9001 5.28753 8.9001 6.99961V8.09961H15.1001V6.99961Z"/>
            <path fill-rule="evenodd" clip-rule="evenodd"
                  d="M13.0001 13.9996C13.0001 13.4473 12.5524 12.9996 12.0001 12.9996C11.4478 12.9996 11.0001 13.4473 11.0001 13.9996V15.9996C11.0001 16.5519 11.4478 16.9996 12.0001 16.9996C12.5524 16.9996 13.0001 16.5519 13.0001 15.9996V13.9996Z"/>
        </symbol>

        <symbol id="lock_open_outline_24">
            <path d="M12.0001 13C12.5524 13 13.0001 13.4477 13.0001 14V16C13.0001 16.5523 12.5524 17 12.0001 17C11.4478 17 11.0001 16.5523 11.0001 16V14C11.0001 13.4477 11.4478 13 12.0001 13Z"/>
            <path fill-rule="evenodd" clip-rule="evenodd"
                  d="M7.1002 6.99961C7.1002 4.29341 9.294 2.09961 12.0002 2.09961C13.815 2.09961 15.3982 3.08669 16.2441 4.54896C16.2987 4.64331 16.3502 4.73967 16.3986 4.83791C16.4323 4.9064 16.4645 4.9758 16.495 5.04608C16.6934 5.50186 16.4846 6.03211 16.0289 6.23042C15.5731 6.42874 15.0428 6.22002 14.8445 5.76424C14.8252 5.71991 14.8049 5.6761 14.7836 5.63285C14.7531 5.57081 14.7205 5.50992 14.686 5.45026C14.1487 4.52132 13.1465 3.89961 12.0002 3.89961C10.2881 3.89961 8.9002 5.28753 8.9002 6.99961V8.1L15.2378 8.1C16.0458 8.09999 16.7067 8.09998 17.2438 8.14386C17.7997 8.18928 18.3018 8.28616 18.7707 8.52507C19.5045 8.89898 20.1011 9.4956 20.475 10.2294C20.7139 10.6983 20.8108 11.2004 20.8562 11.7563C20.9001 12.2934 20.9001 12.9542 20.9001 13.7623V16.2377C20.9001 17.0458 20.9001 17.7066 20.8562 18.2437C20.8108 18.7996 20.7139 19.3017 20.475 19.7706C20.1011 20.5044 19.5045 21.101 18.7707 21.4749C18.3018 21.7138 17.7997 21.8107 17.2438 21.8561C16.7067 21.9 16.0459 21.9 15.2379 21.9H8.76239C7.95439 21.9 7.29347 21.9 6.75642 21.8561C6.2005 21.8107 5.69842 21.7138 5.22954 21.4749C4.4957 21.101 3.89908 20.5044 3.52517 19.7706C3.28626 19.3017 3.18938 18.7996 3.14396 18.2437C3.10008 17.7066 3.10009 17.0458 3.1001 16.2377V13.7623C3.10009 12.9543 3.10008 12.2934 3.14396 11.7563C3.18938 11.2004 3.28626 10.6983 3.52517 10.2294C3.89908 9.4956 4.4957 8.89898 5.22954 8.52507C5.69842 8.28616 6.2005 8.18928 6.75642 8.14386C6.86581 8.13492 6.98034 8.12781 7.1002 8.12214V6.99961ZM6.90299 9.93788C6.45839 9.97421 6.21956 10.0408 6.04672 10.1289C5.65158 10.3302 5.33032 10.6515 5.12898 11.0466C5.04092 11.2195 4.97431 11.4583 4.93798 11.9029C4.9008 12.358 4.9001 12.9451 4.9001 13.8V16.2C4.9001 17.0549 4.9008 17.642 4.93798 18.0971C4.97431 18.5417 5.04092 18.7805 5.12898 18.9534C5.33032 19.3485 5.65158 19.6698 6.04672 19.8711C6.21956 19.9592 6.45839 20.0258 6.90299 20.0621C7.3581 20.0993 7.94517 20.1 8.8001 20.1H15.2001C16.055 20.1 16.6421 20.0993 17.0972 20.0621C17.5418 20.0258 17.7806 19.9592 17.9535 19.8711C18.3486 19.6698 18.6699 19.3485 18.8712 18.9534C18.9593 18.7805 19.0259 18.5417 19.0622 18.0971C19.0994 17.642 19.1001 17.0549 19.1001 16.2V13.8C19.1001 12.9451 19.0994 12.358 19.0622 11.9029C19.0259 11.4583 18.9593 11.2195 18.8712 11.0466C18.6699 10.6515 18.3486 10.3302 17.9535 10.1289C17.7806 10.0408 17.5418 9.97421 17.0972 9.93788C16.6421 9.9007 16.055 9.9 15.2001 9.9H8.8001C7.94517 9.9 7.3581 9.9007 6.90299 9.93788Z"/>
        </symbol>

        <symbol id="warning_triangle_outline_24">
            <path fill-rule="evenodd" clip-rule="evenodd"
                  d="M9.48854 4.54961C10.6047 2.61628 13.3953 2.61628 14.5115 4.54961L21.4397 16.5496C22.5559 18.4829 21.1606 20.8996 18.9282 20.8996H5.07181C2.83939 20.8996 1.44412 18.4829 2.56033 16.5496L9.48854 4.54961ZM12.9526 5.44961C12.5292 4.71628 11.4708 4.71628 11.0474 5.44961L4.11918 17.4496C3.69579 18.1829 4.22503 19.0996 5.07181 19.0996H18.9282C19.775 19.0996 20.3042 18.1829 19.8808 17.4496L12.9526 5.44961Z"/>
            <path fill-rule="evenodd" clip-rule="evenodd"
                  d="M12 7.99964C12.4971 7.99964 12.9 8.3738 12.9 8.83535L12.9 13.6639C12.9 14.1255 12.497 14.4996 12 14.4996C11.5029 14.4996 11.1 14.1255 11.1 13.6639L11.1 8.83535C11.1 8.3738 11.503 7.99964 12 7.99964Z"/>
            <path d="M13 16.4996C13 17.0519 12.5523 17.4996 12 17.4996C11.4477 17.4996 11 17.0519 11 16.4996C11 15.9474 11.4477 15.4996 12 15.4996C12.5523 15.4996 13 15.9474 13 16.4996Z"/>
        </symbol>

        <symbol id="dashboard_28">
            <rect width="28" height="28" rx="8" fill="#007AFF"/>
            <path fill-rule="evenodd" clip-rule="evenodd"
                  d="M12.3174 6H15.6826C16.6351 5.99999 17.3956 5.99999 18.0099 6.05018C18.6399 6.10165 19.1818 6.20963 19.6795 6.46322C20.4791 6.87068 21.1293 7.52085 21.5368 8.32054C21.7904 8.81824 21.8984 9.36012 21.9498 9.99013C22 10.6044 22 11.3649 22 12.3173V12.3174V15.6826V15.6827C22 16.6351 22 17.3956 21.9498 18.0099C21.8984 18.6399 21.7904 19.1818 21.5368 19.6795C21.1293 20.4791 20.4791 21.1293 19.6795 21.5368C19.1818 21.7904 18.6399 21.8984 18.0099 21.9498C17.3956 22 16.6351 22 15.6827 22H15.6826H12.3174H12.3173C11.3649 22 10.6044 22 9.99013 21.9498C9.36012 21.8984 8.81824 21.7904 8.32054 21.5368C7.52085 21.1293 6.87068 20.4791 6.46322 19.6795C6.20963 19.1818 6.10165 18.6399 6.05018 18.0099C5.99999 17.3956 5.99999 16.6351 6 15.6826V12.3174C5.99999 11.3649 5.99999 10.6044 6.05018 9.99013C6.10165 9.36012 6.20963 8.81824 6.46322 8.32054C6.87068 7.52085 7.52085 6.87068 8.32054 6.46322C8.81824 6.20963 9.36012 6.10165 9.99013 6.05018C10.6044 5.99999 11.3649 5.99999 12.3174 6ZM10.1123 7.54519C9.57503 7.58909 9.25252 7.67184 9.00153 7.79973C8.48408 8.06338 8.06338 8.48408 7.79973 9.00153C7.67184 9.25252 7.58909 9.57503 7.54519 10.1123C7.50058 10.6583 7.5 11.3575 7.5 12.35V13.25H13.25V7.5H12.35C11.3575 7.5 10.6583 7.50058 10.1123 7.54519ZM13.25 14.75H7.5V15.65C7.5 16.6425 7.50058 17.3417 7.54519 17.8877C7.58909 18.425 7.67184 18.7475 7.79973 18.9985C8.06338 19.5159 8.48408 19.9366 9.00153 20.2003C9.25252 20.3282 9.57503 20.4109 10.1123 20.4548C10.6583 20.4994 11.3575 20.5 12.35 20.5H13.25V14.75ZM14.75 14.75H20.5V15.65C20.5 16.6425 20.4994 17.3417 20.4548 17.8877C20.4109 18.425 20.3282 18.7475 20.2003 18.9985C19.9366 19.5159 19.5159 19.9366 18.9985 20.2003C18.7475 20.3282 18.425 20.4109 17.8877 20.4548C17.3417 20.4994 16.6425 20.5 15.65 20.5H14.75V14.75ZM20.5 13.25H14.75V7.5H15.65C16.6425 7.5 17.3417 7.50058 17.8877 7.54519C18.425 7.58909 18.7475 7.67184 18.9985 7.79973C19.5159 8.06338 19.9366 8.48408 20.2003 9.00153C20.3282 9.25252 20.4109 9.57503 20.4548 10.1123C20.4994 10.6583 20.5 11.3575 20.5 12.35V13.25Z"
                  fill="white"/>
        </symbol>
    </defs>
</svg>