<svg width="32" height="32" viewBox="0 0 32 32" fill="none" xmlns="http://www.w3.org/2000/svg">
<path fill-rule="evenodd" clip-rule="evenodd" d="M16.6527 5.01473C16.2372 4.80633 15.7479 4.80633 15.3325 5.01473C15.2549 5.05367 15.0303 5.22415 14.6239 5.97136C14.2339 6.68823 13.7897 7.70991 13.1542 9.17585C12.8973 9.76868 12.6308 10.3584 12.3832 10.9551C12.3505 11.0339 12.2478 11.2814 12.0694 11.4868C11.9226 11.6558 11.7428 11.7928 11.541 11.8895C11.2725 12.0182 10.9796 12.0459 10.9266 12.0534L9.83535 12.2075C8.24685 12.4318 7.13894 12.5895 6.34088 12.7759C5.5085 12.9704 5.28396 13.1425 5.22615 13.2069C4.9148 13.5534 4.78537 14.0267 4.87707 14.4836C4.89409 14.5685 4.99976 14.8311 5.61721 15.4227C6.20921 15.99 7.0825 16.6904 8.33548 17.6932L8.73365 18.0119C8.77797 18.0474 9.03294 18.2318 9.20406 18.4983C9.33247 18.6984 9.41585 18.924 9.44842 19.1595C9.48808 19.4462 9.43004 19.7264 9.41164 19.8153C9.36571 20.0371 9.32693 20.2606 9.28473 20.4831C8.93551 22.3244 8.68982 23.6258 8.59181 24.5809C8.48752 25.5973 8.59648 25.895 8.63408 25.9567C8.88994 26.3767 9.33808 26.6413 9.82899 26.6623C9.90114 26.6654 10.2142 26.6168 11.0524 26.0337C11.8401 25.4858 12.859 24.6411 14.3 23.4444C14.4683 23.3047 14.6366 23.1651 14.8047 23.0252C14.8654 22.9748 14.9544 22.9008 15.041 22.8392C15.1472 22.7636 15.3162 22.6568 15.5449 22.5918C15.8375 22.5085 16.1476 22.5085 16.4403 22.5918C16.6689 22.6568 16.8379 22.7636 16.9442 22.8392C17.0308 22.9008 17.1198 22.9748 17.1804 23.0252L17.6851 23.4444C19.1261 24.6411 20.1451 25.4858 20.9328 26.0337C21.771 26.6168 22.084 26.6654 22.1562 26.6623C22.6471 26.6413 23.0952 26.3767 23.3511 25.9567C23.3887 25.895 23.4976 25.5973 23.3933 24.5809C23.2953 23.6258 23.0496 22.3244 22.7004 20.4831C22.6582 20.2606 22.6195 20.0371 22.5735 19.8153C22.5551 19.7264 22.4971 19.4462 22.5367 19.1595C22.5693 18.924 22.6527 18.6984 22.7811 18.4983C22.9522 18.2318 23.2072 18.0474 23.2515 18.0119L23.6497 17.6932C24.9027 16.6904 25.7759 15.99 26.3679 15.4227C26.9854 14.8311 27.0911 14.5685 27.1081 14.4836C27.1998 14.0267 27.0704 13.5534 26.759 13.2069C26.7012 13.1425 26.4767 12.9704 25.6443 12.7759C24.8462 12.5895 23.7383 12.4318 22.1498 12.2075C21.7799 12.1552 21.4103 12.0973 21.0396 12.0509C20.9551 12.0403 20.6894 12.0071 20.4441 11.8895C20.2424 11.7928 20.0626 11.6558 19.9158 11.4868C19.7205 11.262 19.6159 10.9867 19.5946 10.9375L18.8309 9.17585C18.1954 7.7099 17.7512 6.68823 17.3613 5.97136C16.9549 5.22415 16.7303 5.05367 16.6527 5.01473ZM14.2323 2.81719C15.3402 2.26146 16.645 2.26146 17.7528 2.81719C18.5524 3.21827 19.0793 3.98958 19.5179 4.79591C19.9668 5.62116 20.454 6.74503 21.0584 8.13927L21.7195 9.66431L22.5556 9.7824C24.0668 9.99581 25.2844 10.1678 26.2024 10.3822C27.0987 10.5916 27.9851 10.8957 28.5847 11.563C29.4149 12.487 29.7601 13.7494 29.5156 14.9678C29.339 15.8477 28.7309 16.5613 28.066 17.1984C27.385 17.8509 26.4246 18.6195 25.2327 19.5734L25.0544 19.7161L25.1247 20.0868C25.4595 21.8521 25.726 23.2572 25.8361 24.3297C25.9411 25.3536 25.9516 26.4093 25.4475 27.2367C24.7652 28.3564 23.5702 29.062 22.2611 29.1181C21.2938 29.1595 20.3758 28.6396 19.5315 28.0523C18.647 27.437 17.5473 26.5238 16.1658 25.3764L15.9926 25.2326L15.8194 25.3764C14.4378 26.5238 13.3382 27.437 12.4537 28.0523C11.6093 28.6396 10.6913 29.1595 9.72407 29.1181C8.41497 29.062 7.21994 28.3564 6.53766 27.2367C6.03355 26.4093 6.04403 25.3536 6.14908 24.3297C6.25913 23.2572 6.52564 21.8521 6.86046 20.0867L6.93075 19.7161L6.75254 19.5735C5.56057 18.6195 4.60013 17.8509 3.91918 17.1984C3.25429 16.5613 2.64618 15.8477 2.46958 14.9678C2.22506 13.7494 2.57022 12.487 3.40047 11.563C4.0001 10.8957 4.88646 10.5916 5.78279 10.3822C6.70077 10.1678 7.91841 9.99581 9.42955 9.7824L10.2657 9.66431L10.9268 8.13923C11.5312 6.74502 12.0183 5.62115 12.4672 4.79591C12.9059 3.98958 13.4328 3.21827 14.2323 2.81719Z" fill="#FFCC00"/>
</svg>
