<svg width="32" height="32" viewBox="0 0 32 32" fill="none" xmlns="http://www.w3.org/2000/svg">
<path d="M20 7.99961C20 5.78935 18.2103 3.99961 16 3.99961C13.7897 3.99961 12 5.78935 12 7.99961C12 10.2099 13.7897 11.9996 16 11.9996C18.2103 11.9996 20 10.2099 20 7.99961ZM22.4 7.99961C22.4 11.5354 19.5357 14.3996 16 14.3996C12.4643 14.3996 9.6 11.5354 9.6 7.99961C9.6 4.46387 12.4643 1.59961 16 1.59961C19.5357 1.59961 22.4 4.46387 22.4 7.99961ZM6.4 24.7996C6.4 25.9439 6.97224 26.3996 8 26.3996H24C25.0278 26.3996 25.6 25.9439 25.6 24.7996C25.6 21.0662 21.4934 19.1996 16 19.1996C10.5066 19.1996 6.4 21.0662 6.4 24.7996ZM4 24.7996C4 19.2239 9.33343 16.7996 16 16.7996C22.6666 16.7996 28 19.2239 28 24.7996C28 27.4049 26.2485 28.7996 24 28.7996H8C5.75148 28.7996 4 27.4049 4 24.7996Z" fill="#34C759"/>
</svg>
