<svg width="32" height="32" viewBox="0 0 32 32" fill="none" xmlns="http://www.w3.org/2000/svg">
<path fill-rule="evenodd" clip-rule="evenodd" d="M9.99961 5.59961C7.34864 5.59961 5.19961 7.74864 5.19961 10.3996C5.19961 13.0506 7.34864 15.1996 9.99961 15.1996C12.6506 15.1996 14.7996 13.0506 14.7996 10.3996C14.7996 7.74864 12.6506 5.59961 9.99961 5.59961ZM7.59961 10.3996C7.59961 11.7251 8.67413 12.7996 9.99961 12.7996C11.3251 12.7996 12.3996 11.7251 12.3996 10.3996C12.3996 9.07413 11.3251 7.99961 9.99961 7.99961C8.67413 7.99961 7.59961 9.07413 7.59961 10.3996Z" fill="#FF3B30"/>
<path fill-rule="evenodd" clip-rule="evenodd" d="M4.29994 18.5102C5.83619 17.6239 7.86156 17.1996 9.99961 17.1996C12.1377 17.1996 14.163 17.6239 15.6993 18.5102C17.2623 19.4119 18.3996 20.8587 18.3996 22.7996C18.3996 23.9311 17.9587 24.8891 17.1492 25.5366C16.3758 26.1554 15.3826 26.3996 14.3996 26.3996H5.59961C4.61658 26.3996 3.62343 26.1554 2.84998 25.5366C2.04048 24.8891 1.59961 23.9311 1.59961 22.7996C1.59961 20.8587 2.73694 19.4119 4.29994 18.5102ZM5.49928 20.589C4.46228 21.1873 3.99961 21.9405 3.99961 22.7996C3.99961 23.2681 4.15874 23.5102 4.34924 23.6626C4.57579 23.8438 4.98263 23.9996 5.59961 23.9996H14.3996C15.0166 23.9996 15.4234 23.8438 15.65 23.6626C15.8405 23.5102 15.9996 23.2681 15.9996 22.7996C15.9996 21.9405 15.5369 21.1873 14.4999 20.589C13.4362 19.9753 11.8616 19.5996 9.99961 19.5996C8.13766 19.5996 6.56303 19.9753 5.49928 20.589Z" fill="#FF3B30"/>
<path fill-rule="evenodd" clip-rule="evenodd" d="M21.9996 5.59961C19.3486 5.59961 17.1996 7.74864 17.1996 10.3996C17.1996 13.0506 19.3486 15.1996 21.9996 15.1996C24.6506 15.1996 26.7996 13.0506 26.7996 10.3996C26.7996 7.74864 24.6506 5.59961 21.9996 5.59961ZM19.5996 10.3996C19.5996 11.7251 20.6741 12.7996 21.9996 12.7996C23.3251 12.7996 24.3996 11.7251 24.3996 10.3996C24.3996 9.07413 23.3251 7.99961 21.9996 7.99961C20.6741 7.99961 19.5996 9.07413 19.5996 10.3996Z" fill="#FF3B30"/>
<path d="M21.9996 19.5996C21.6364 19.5996 21.2739 19.6174 20.9168 19.6525C20.2572 19.7172 19.6701 19.2349 19.6053 18.5754C19.5406 17.9158 20.0229 17.3286 20.6824 17.2639C21.1177 17.2212 21.5584 17.1996 21.9996 17.1996C24.1377 17.1996 26.163 17.6239 27.6993 18.5102C29.2623 19.4119 30.3996 20.8587 30.3996 22.7996C30.3996 23.9311 29.9587 24.8891 29.1492 25.5366C28.3758 26.1554 27.3826 26.3996 26.3996 26.3996H21.5996C20.9369 26.3996 20.3996 25.8623 20.3996 25.1996C20.3996 24.5369 20.9369 23.9996 21.5996 23.9996H26.3996C27.0166 23.9996 27.4234 23.8438 27.65 23.6626C27.8405 23.5102 27.9996 23.2681 27.9996 22.7996C27.9996 21.9405 27.5369 21.1873 26.4999 20.589C25.4362 19.9753 23.8616 19.5996 21.9996 19.5996Z" fill="#FF3B30"/>
</svg>
