<svg width="32" height="32" viewBox="0 0 32 32" fill="none" xmlns="http://www.w3.org/2000/svg">
<path d="M17.2726 3.19922C19.0557 3.19922 19.7022 3.38487 20.3541 3.73348C21.0059 4.0821 21.5175 4.59368 21.8661 5.24553C22.1915 5.85392 22.3749 6.45772 22.3979 7.9852L22.4004 8.79922H24.582C26.2338 8.79922 26.9022 8.98487 27.5541 9.33348C28.2059 9.6821 28.7175 10.1937 29.0661 10.8455C29.4147 11.4974 29.6004 12.1658 29.6004 13.8176V16.697C29.6004 18.1234 29.4519 18.6407 29.173 19.1622C28.9012 19.6704 28.5056 20.072 28.003 20.3502L28.0004 22.7992C28.0004 25.5721 25.8301 27.838 23.0955 27.991L22.8004 27.9992H9.20039C6.42754 27.9992 4.1616 25.8289 4.00862 23.0943L4.00039 22.7992V20.348L3.78613 20.2216C3.38316 19.9534 3.06021 19.5967 2.8278 19.1622C2.57036 18.6808 2.42401 18.203 2.40302 17.0105L2.40039 13.8176C2.40039 12.1658 2.58604 11.4974 2.93466 10.8455C3.28327 10.1937 3.79485 9.6821 4.4467 9.33348C5.05199 9.00977 5.67159 8.82657 7.07954 8.80205L9.60039 8.80082V8.32699C9.60039 6.54395 9.78604 5.89738 10.1347 5.24553C10.4833 4.59368 10.9948 4.0821 11.6467 3.73348C12.2551 3.40811 12.8589 3.2247 14.3864 3.20169L17.2726 3.19922ZM25.604 20.7989L6.40039 20.7976V22.7992C6.40039 24.2683 7.53177 25.4731 8.97075 25.5899L9.20039 25.5992H22.8004C24.2695 25.5992 25.4743 24.4678 25.5911 23.0289L25.6004 22.7992L25.604 20.7989ZM24.8539 11.2007H7.14691L6.65326 11.2147C6.08129 11.2439 5.82804 11.3164 5.57854 11.4498C5.34493 11.5748 5.17594 11.7438 5.05101 11.9774C4.88421 12.2892 4.81262 12.607 4.80185 13.5457L4.80136 16.9351L4.8095 17.3144C4.82205 17.6359 4.84832 17.7971 4.89307 17.9182L4.94415 18.0303C4.99937 18.1336 5.06604 18.2002 5.16928 18.2555L5.28144 18.3065C5.46307 18.3737 5.735 18.3992 6.50261 18.3992H25.4982C26.2658 18.3992 26.5377 18.3737 26.7193 18.3065L26.8315 18.2555C26.9347 18.2002 27.0014 18.1336 27.0566 18.0303L27.1077 17.9182C27.1748 17.7365 27.2004 17.4646 27.2004 16.697V13.8176C27.2004 12.6648 27.1317 12.3176 26.9498 11.9774C26.8248 11.7438 26.6559 11.5748 26.4222 11.4498C26.1104 11.283 25.7926 11.2114 24.8539 11.2007ZM17.5482 5.60041H14.4526L13.9447 5.61216C13.4284 5.63363 13.1601 5.68337 12.9411 5.77279L12.7785 5.84984C12.5449 5.97477 12.3759 6.14376 12.251 6.37736L12.174 6.5399C12.059 6.82147 12.0096 7.18459 12.0016 8.05141L12.0004 8.79922H20.0004L19.9992 8.05141L19.9875 7.54352C19.966 7.02723 19.9162 6.7589 19.8268 6.5399L19.7498 6.37736C19.6248 6.14376 19.4559 5.97477 19.2222 5.84984L19.0597 5.77279C18.7781 5.65782 18.415 5.60844 17.5482 5.60041Z" fill="#32ADE6"/>
</svg>
