<svg width="25" height="24" viewBox="0 0 25 24" fill="none" xmlns="http://www.w3.org/2000/svg">
<path d="M5.76363 5.2636C6.1151 4.91213 6.68495 4.91213 7.03642 5.26361L12.5 10.7272L17.9636 5.26363C18.3151 4.91216 18.885 4.91216 19.2364 5.26363C19.5879 5.6151 19.5879 6.18495 19.2364 6.53642L13.7728 12L19.2364 17.4636C19.5879 17.8151 19.5879 18.385 19.2364 18.7364C18.8849 19.0879 18.3151 19.0879 17.9636 18.7364L12.5 13.2728L7.03639 18.7364C6.68492 19.0879 6.11507 19.0879 5.7636 18.7364C5.41213 18.3849 5.41213 17.8151 5.76361 17.4636L11.2272 12L5.76363 6.53639C5.41216 6.18492 5.41216 5.61507 5.76363 5.2636Z" fill="#2688EB"/>
</svg>
