<svg width="28" height="28" viewBox="0 0 28 28" fill="none" xmlns="http://www.w3.org/2000/svg">
<rect width="28" height="28" rx="8" fill="#007AFF"/>
<path fill-rule="evenodd" clip-rule="evenodd" d="M12.3174 6H15.6826C16.6351 5.99999 17.3956 5.99999 18.0099 6.05018C18.6399 6.10165 19.1818 6.20963 19.6795 6.46322C20.4791 6.87068 21.1293 7.52085 21.5368 8.32054C21.7904 8.81824 21.8984 9.36012 21.9498 9.99013C22 10.6044 22 11.3649 22 12.3173V12.3174V15.6826V15.6827C22 16.6351 22 17.3956 21.9498 18.0099C21.8984 18.6399 21.7904 19.1818 21.5368 19.6795C21.1293 20.4791 20.4791 21.1293 19.6795 21.5368C19.1818 21.7904 18.6399 21.8984 18.0099 21.9498C17.3956 22 16.6351 22 15.6827 22H15.6826H12.3174H12.3173C11.3649 22 10.6044 22 9.99013 21.9498C9.36012 21.8984 8.81824 21.7904 8.32054 21.5368C7.52085 21.1293 6.87068 20.4791 6.46322 19.6795C6.20963 19.1818 6.10165 18.6399 6.05018 18.0099C5.99999 17.3956 5.99999 16.6351 6 15.6826V12.3174C5.99999 11.3649 5.99999 10.6044 6.05018 9.99013C6.10165 9.36012 6.20963 8.81824 6.46322 8.32054C6.87068 7.52085 7.52085 6.87068 8.32054 6.46322C8.81824 6.20963 9.36012 6.10165 9.99013 6.05018C10.6044 5.99999 11.3649 5.99999 12.3174 6ZM10.1123 7.54519C9.57503 7.58909 9.25252 7.67184 9.00153 7.79973C8.48408 8.06338 8.06338 8.48408 7.79973 9.00153C7.67184 9.25252 7.58909 9.57503 7.54519 10.1123C7.50058 10.6583 7.5 11.3575 7.5 12.35V13.25H13.25V7.5H12.35C11.3575 7.5 10.6583 7.50058 10.1123 7.54519ZM13.25 14.75H7.5V15.65C7.5 16.6425 7.50058 17.3417 7.54519 17.8877C7.58909 18.425 7.67184 18.7475 7.79973 18.9985C8.06338 19.5159 8.48408 19.9366 9.00153 20.2003C9.25252 20.3282 9.57503 20.4109 10.1123 20.4548C10.6583 20.4994 11.3575 20.5 12.35 20.5H13.25V14.75ZM14.75 14.75H20.5V15.65C20.5 16.6425 20.4994 17.3417 20.4548 17.8877C20.4109 18.425 20.3282 18.7475 20.2003 18.9985C19.9366 19.5159 19.5159 19.9366 18.9985 20.2003C18.7475 20.3282 18.425 20.4109 17.8877 20.4548C17.3417 20.4994 16.6425 20.5 15.65 20.5H14.75V14.75ZM20.5 13.25H14.75V7.5H15.65C16.6425 7.5 17.3417 7.50058 17.8877 7.54519C18.425 7.58909 18.7475 7.67184 18.9985 7.79973C19.5159 8.06338 19.9366 8.48408 20.2003 9.00153C20.3282 9.25252 20.4109 9.57503 20.4548 10.1123C20.4994 10.6583 20.5 11.3575 20.5 12.35V13.25Z" fill="white"/>
</svg>
