<svg width="24" height="24" viewBox="0 0 24 24" fill="none" xmlns="http://www.w3.org/2000/svg">
    <path fill-rule="evenodd" clip-rule="evenodd" d="M16.5001 4.80078C16.7388 4.80078 16.9677 4.8956 17.1365 5.06439L20.1365 8.06439C20.488 8.41586 20.488 8.98571 20.1365 9.33718C19.785 9.68865 19.2152 9.68865 18.8637 9.33718L17.4001 7.87357V18.3008C17.4001 18.7978 16.9972 19.2008 16.5001 19.2008C16.003 19.2008 15.6001 18.7978 15.6001 18.3008V7.87357L14.1365 9.33718C13.785 9.68865 13.2152 9.68865 12.8637 9.33718C12.5122 8.98571 12.5122 8.41586 12.8637 8.06439L15.8637 5.06439C16.0325 4.8956 16.2614 4.80078 16.5001 4.80078ZM7.5001 4.80078C7.99715 4.80078 8.4001 5.20373 8.4001 5.70078L8.4001 16.128L9.8637 14.6644C10.2152 14.3129 10.785 14.3129 11.1365 14.6644C11.488 15.0159 11.488 15.5857 11.1365 15.9372L8.13649 18.9372C7.96771 19.106 7.73879 19.2008 7.5001 19.2008C7.2614 19.2008 7.03248 19.106 6.8637 18.9372L3.8637 15.9372C3.51223 15.5857 3.51223 15.0159 3.8637 14.6644C4.21517 14.3129 4.78502 14.3129 5.13649 14.6644L6.6001 16.128L6.6001 5.70078C6.6001 5.20373 7.00304 4.80078 7.5001 4.80078Z" fill="#2688EB"/>
</svg>
