<svg width="24" height="24" viewBox="0 0 24 24" fill="none" xmlns="http://www.w3.org/2000/svg">
<path fill-rule="evenodd" clip-rule="evenodd" d="M12.5544 4.69403C12.3499 4.19991 11.6501 4.19991 11.4456 4.69403L9.83162 8.59447C9.70042 8.91152 9.40036 9.12639 9.05794 9.14848L4.93272 9.41462C4.39867 9.44908 4.1735 10.1125 4.57625 10.4649L7.84265 13.323C8.09474 13.5436 8.20347 13.8859 8.12487 14.2115L7.19511 18.0634C7.0714 18.5759 7.62149 18.9874 8.0782 18.7239L11.5503 16.7208C11.8286 16.5602 12.1714 16.5602 12.4497 16.7208L15.9218 18.7239C16.3785 18.9874 16.9286 18.5759 16.8049 18.0634L15.8751 14.2115C15.7965 13.8859 15.9053 13.5436 16.1573 13.323L19.4237 10.4649C19.8265 10.1125 19.6013 9.44908 19.0673 9.41462L14.9421 9.14848C14.5996 9.12639 14.2996 8.91152 14.1684 8.59447L12.5544 4.69403ZM9.78236 4.00579C10.6002 2.02932 13.3998 2.02932 14.2176 4.00579L15.6173 7.3883L19.1832 7.61836C21.3194 7.75618 22.2201 10.4099 20.6091 11.8196L17.7527 14.3189L18.5546 17.641C19.0495 19.6912 16.8491 21.337 15.0223 20.283L12 18.5394L8.9777 20.283C7.15087 21.337 4.9505 19.6912 5.44536 17.641L6.24727 14.3189L3.39094 11.8196C1.77994 10.4099 2.68063 7.75618 4.81683 7.61836L8.3827 7.3883L9.78236 4.00579Z" fill="#2688EB"/>
</svg>
