<svg width="20" height="20" viewBox="0 0 20 20" fill="none" xmlns="http://www.w3.org/2000/svg">
<path fill-rule="evenodd" clip-rule="evenodd" d="M10.4087 3.13396C10.149 3.00371 9.84318 3.00371 9.58353 3.13396C9.53502 3.1583 9.39467 3.26485 9.14064 3.73186C8.89693 4.1799 8.61931 4.81845 8.22213 5.73466C8.06152 6.10518 7.89499 6.47373 7.74022 6.84672C7.71979 6.89596 7.6556 7.05064 7.54408 7.17901C7.45234 7.28461 7.33996 7.37027 7.21386 7.4307C7.04607 7.51112 6.86301 7.52842 6.82984 7.5331L6.14782 7.62943C5.15501 7.76964 4.46257 7.86819 3.96378 7.98471C3.44354 8.10625 3.30321 8.21384 3.26708 8.25405C3.07248 8.4706 2.99159 8.76647 3.0489 9.05203C3.05954 9.10506 3.12558 9.26919 3.51149 9.63897C3.88149 9.9935 4.42729 10.4313 5.2104 11.058L5.45926 11.2572C5.48696 11.2794 5.64632 11.3946 5.75327 11.5612C5.83352 11.6862 5.88564 11.8272 5.906 11.9744C5.93078 12.1536 5.89451 12.3288 5.88301 12.3843C5.8543 12.5229 5.83006 12.6626 5.80369 12.8017C5.58543 13.9525 5.43187 14.7659 5.37062 15.3628C5.30543 15.998 5.37353 16.1842 5.39704 16.2227C5.55694 16.4852 5.83703 16.6505 6.14385 16.6637C6.18895 16.6656 6.3846 16.6352 6.90847 16.2708C7.40078 15.9284 8.03763 15.4004 8.93824 14.6525C9.04339 14.5652 9.14861 14.4779 9.25369 14.3905C9.29159 14.359 9.3472 14.3127 9.40133 14.2742C9.46774 14.227 9.57337 14.1603 9.71627 14.1196C9.89919 14.0675 10.093 14.0675 10.2759 14.1196C10.4188 14.1603 10.5244 14.227 10.5909 14.2742C10.645 14.3127 10.7006 14.359 10.7385 14.3905L11.0539 14.6525C11.9546 15.4004 12.5914 15.9284 13.0837 16.2708C13.6076 16.6352 13.8032 16.6656 13.8483 16.6637C14.1552 16.6505 14.4352 16.4852 14.5952 16.2227C14.6187 16.1842 14.6868 15.998 14.6216 15.3628C14.5603 14.7659 14.4068 13.9525 14.1885 12.8017C14.1621 12.6626 14.1379 12.5229 14.1092 12.3843C14.0977 12.3288 14.0614 12.1536 14.0862 11.9744C14.1065 11.8272 14.1587 11.6862 14.2389 11.5612C14.3459 11.3946 14.5052 11.2794 14.5329 11.2572L14.7818 11.058C15.5649 10.4313 16.1107 9.9935 16.4807 9.63897C16.8666 9.26919 16.9326 9.10506 16.9433 9.05203C17.0006 8.76647 16.9197 8.4706 16.7251 8.25405C16.689 8.21384 16.5486 8.10625 16.0284 7.98471C15.5296 7.86819 14.8372 7.76965 13.8444 7.62943C13.6132 7.59677 13.3822 7.56057 13.1505 7.53157C13.0976 7.52495 12.9316 7.50417 12.7783 7.4307C12.6522 7.37027 12.5398 7.28461 12.4481 7.17901C12.326 7.0385 12.2607 6.86646 12.2473 6.83569L11.7701 5.73466C11.3729 4.81845 11.0953 4.1799 10.8515 3.73186C10.5975 3.26485 10.4572 3.1583 10.4087 3.13396ZM8.89593 1.7605C9.58833 1.41317 10.4039 1.41317 11.0963 1.7605C11.596 2.01117 11.9253 2.49324 12.1994 2.9972C12.48 3.51298 12.7845 4.2154 13.1622 5.0868L13.5754 6.03995L14.098 6.11375C15.0425 6.24714 15.8035 6.35461 16.3772 6.48864C16.9374 6.61951 17.4914 6.8096 17.8662 7.22665C18.3851 7.80412 18.6008 8.59312 18.448 9.35461C18.3376 9.90458 17.9575 10.3506 17.542 10.7487C17.1164 11.1565 16.5161 11.6369 15.7711 12.2331L15.6597 12.3223L15.7037 12.554C15.9129 13.6573 16.0795 14.5355 16.1483 15.2058C16.2139 15.8457 16.2205 16.5056 15.9054 17.0227C15.479 17.7225 14.7321 18.1635 13.9139 18.1986C13.3094 18.2244 12.7356 17.8995 12.2079 17.5324C11.6551 17.1479 10.9678 16.5771 10.1043 15.86L9.99609 15.7701L9.88786 15.86C9.02438 16.5771 8.33708 17.1479 7.78426 17.5324C7.25655 17.8995 6.68281 18.2244 6.07828 18.1986C5.26009 18.1635 4.51319 17.7225 4.08677 17.0227C3.7717 16.5056 3.77825 15.8457 3.84391 15.2058C3.91269 14.5355 4.07926 13.6573 4.28852 12.554L4.33245 12.3223L4.22107 12.2332C3.47609 11.637 2.87581 11.1565 2.45022 10.7487C2.03466 10.3506 1.65459 9.90458 1.54422 9.35461C1.3914 8.59312 1.60712 7.80412 2.12603 7.22665C2.5008 6.8096 3.05477 6.61951 3.61498 6.48864C4.18872 6.35461 4.94974 6.24714 5.8942 6.11375L6.41679 6.03995L6.82999 5.08678C7.20772 4.21539 7.5122 3.51298 7.79276 2.9972C8.06689 2.49324 8.39622 2.01117 8.89593 1.7605Z" fill="#2C2D2E"/>
</svg>
