<svg width="20" height="20" viewBox="0 0 20 20" fill="none" xmlns="http://www.w3.org/2000/svg">
<path d="M7.28107 4.98488L6.75641 6.19746C6.71981 6.28204 6.70151 6.32434 6.67303 6.35719C6.64782 6.38626 6.61693 6.40985 6.58228 6.42649C6.54312 6.44529 6.4976 6.45173 6.40656 6.46461L5.65687 6.57069C3.50737 6.87485 2.43262 7.02693 1.98094 7.53052C1.58879 7.96775 1.42576 8.56514 1.54125 9.14171C1.67428 9.80579 2.52202 10.4855 4.21751 11.845L4.49107 12.0644C4.56798 12.1261 4.60643 12.1569 4.63136 12.1958C4.65342 12.2302 4.66774 12.2691 4.67334 12.3096C4.67966 12.3554 4.67048 12.4039 4.65211 12.5009L4.5677 12.9469C4.09397 15.4495 3.8571 16.7008 4.22927 17.3128C4.55153 17.8426 5.11598 18.1766 5.73431 18.2031C6.4484 18.2337 7.42583 17.4205 9.38064 15.794L9.71764 15.5136C9.81986 15.4286 9.87097 15.386 9.92798 15.3698C9.97825 15.3554 10.0315 15.3554 10.0818 15.3698C10.1388 15.386 10.1899 15.4286 10.2921 15.5136L10.6291 15.794C12.5839 17.4205 13.5614 18.2337 14.2755 18.2031C14.8938 18.1766 15.4582 17.8426 15.7805 17.3128C16.1527 16.7008 15.9158 15.4495 15.4421 12.9469L15.3577 12.5009C15.3393 12.4039 15.3301 12.3554 15.3364 12.3096C15.342 12.2691 15.3563 12.2302 15.3784 12.1958C15.4033 12.1569 15.4418 12.1261 15.5187 12.0644L15.7923 11.845C17.4877 10.4855 18.3355 9.80579 18.4685 9.14171C18.584 8.56514 18.421 7.96775 18.0288 7.53052C17.5771 7.02693 16.5024 6.87485 14.3529 6.57069L13.6032 6.46461C13.5122 6.45173 13.4666 6.44529 13.4275 6.42649C13.3928 6.40985 13.3619 6.38626 13.3367 6.35719C13.3083 6.32434 13.29 6.28204 13.2534 6.19746L12.7287 4.98488C11.8689 2.99764 11.4389 2.00402 10.8363 1.70114C10.313 1.43816 9.69673 1.43816 9.17346 1.70114C8.57083 2.00402 8.14091 2.99764 7.28107 4.98488Z" fill="#FFCC00"/>
</svg>
