<svg width="28" height="28" viewBox="0 0 28 28" fill="none" xmlns="http://www.w3.org/2000/svg">
<path fill-rule="evenodd" clip-rule="evenodd" d="M9.87191 3.08299C9.52347 2.99934 9.16472 2.99967 8.75782 3.00005L8.67452 3.0001L8.55785 3.0001C7.61355 3.00009 6.84431 3.00008 6.21978 3.05111C5.5743 3.10384 4.99586 3.21603 4.45704 3.49057C3.61031 3.922 2.9219 4.61041 2.49047 5.45714C2.21593 5.99596 2.10374 6.5744 2.05101 7.21988C1.99998 7.84441 1.99999 8.61364 2 9.55793V9.55795V17.4423V17.4423C1.99999 18.3866 1.99998 19.1558 2.05101 19.7803C2.10374 20.4258 2.21593 21.0042 2.49047 21.5431C2.9219 22.3898 3.61031 23.0782 4.45704 23.5096C4.99586 23.7842 5.5743 23.8964 6.21978 23.9491C6.8443 24.0001 7.61354 24.0001 8.55783 24.0001H19.4422C20.3865 24.0001 21.1557 24.0001 21.7802 23.9491C22.4257 23.8964 23.0041 23.7842 23.543 23.5096C24.3897 23.0782 25.0781 22.3898 25.5095 21.5431C25.7841 21.0042 25.8963 20.4258 25.949 19.7803C26 19.1558 26 18.3866 26 17.4423V12.5579C26 11.6136 26 10.8444 25.949 10.2199C25.8963 9.5744 25.7841 8.99596 25.5095 8.45714C25.0781 7.61041 24.3897 6.922 23.543 6.49057C23.0041 6.21603 22.4257 6.10384 21.7802 6.05111C21.1557 6.00008 20.3864 6.00009 19.4421 6.0001L14.3255 6.0001C13.7887 6.0001 13.6833 5.99368 13.595 5.97247C13.4929 5.94798 13.3954 5.90757 13.3059 5.85274C13.2285 5.80528 13.1494 5.7353 12.7698 5.35574L11.6444 4.23025L11.5855 4.1713C11.298 3.88332 11.0446 3.62941 10.7391 3.44218C10.4707 3.2777 10.178 3.15648 9.87191 3.08299Z" fill="#99A2AD"/>
</svg>
