<svg width="18" height="18" viewBox="0 0 18 18" fill="none" xmlns="http://www.w3.org/2000/svg">
<path fill-rule="evenodd" clip-rule="evenodd" d="M2.61618 5.48864C2.05566 5.61951 1.50137 5.8096 1.12639 6.22665C0.607181 6.80412 0.391338 7.59312 0.544249 8.35461C0.654683 8.90458 1.03497 9.35055 1.45076 9.74874C1.8766 10.1566 2.47723 10.637 3.22265 11.2332L3.33406 11.3223L3.29011 11.554C3.08073 12.6573 2.91407 13.5355 2.84524 14.2058C2.77955 14.8457 2.77299 15.5056 3.08824 16.0227C3.51491 16.7225 4.26223 17.1635 5.08088 17.1986C5.68576 17.2244 6.25983 16.8995 6.78784 16.5324C7.34096 16.1479 8.02863 15.5771 8.89259 14.86L9.00092 14.7701L9.10926 14.86C9.97321 15.5771 10.6609 16.1479 11.214 16.5324C11.742 16.8995 12.3161 17.2244 12.921 17.1986C13.7396 17.1635 14.4869 16.7225 14.9136 16.0227C15.0631 15.7775 15.1377 15.506 15.1705 15.2308L16.7206 16.7815C17.0135 17.0746 17.4883 17.0746 17.7812 16.7815C18.0741 16.4885 18.0741 16.0134 17.7812 15.7204L3.28124 1.21416C2.98834 0.921144 2.51347 0.921144 2.22058 1.21416C1.92768 1.50718 1.92768 1.98226 2.22058 2.27528L5.03792 5.09384C4.22945 5.20786 3.41216 5.3028 2.61618 5.48864ZM5.15047 6.62943C4.15715 6.76964 3.46424 6.8682 2.96518 6.98471C2.44465 7.10625 2.30423 7.21384 2.26808 7.25405C2.07338 7.4706 1.99244 7.76647 2.04978 8.05203C2.06043 8.10506 2.12651 8.26919 2.51263 8.63897C2.88284 8.9935 3.42896 9.43128 4.21252 10.058L4.47155 10.265C4.51643 10.2997 4.65794 10.409 4.75568 10.5612C4.83598 10.6862 4.88813 10.8272 4.9085 10.9744C4.9333 11.1536 4.89701 11.3288 4.8855 11.3843L4.80613 11.8017C4.58775 12.9525 4.43411 13.7659 4.37282 14.3628C4.3076 14.998 4.37573 15.1842 4.39925 15.2227C4.55925 15.4852 4.8395 15.6505 5.14649 15.6637C5.19161 15.6656 5.38738 15.6352 5.91155 15.2708C6.40414 14.9284 7.04134 14.4004 7.94247 13.6525L8.24922 13.3979L8.40582 13.2742C8.47226 13.227 8.57796 13.1603 8.72094 13.1196C8.90397 13.0675 9.09788 13.0675 9.2809 13.1196C9.42388 13.1603 9.52958 13.227 9.59602 13.2742L9.75263 13.3979L10.0594 13.6525C10.9605 14.4004 11.5977 14.9284 12.0903 15.2708C12.6145 15.6352 12.8102 15.6656 12.8554 15.6637C13.1623 15.6505 13.4426 15.4852 13.6026 15.2227C13.6116 15.208 13.6591 15.1126 13.6568 14.8084C13.6551 14.5784 13.6263 14.2831 13.5698 13.8981C13.5395 13.691 13.4407 13.5002 13.2927 13.3521L6.39711 6.45362L5.15047 6.62943Z" fill="#2C2D2E"/>
<path d="M8.58813 2.13396C8.84792 2.00371 9.15392 2.00371 9.41372 2.13396C9.46226 2.1583 9.60268 2.26485 9.85686 2.73186C10.1007 3.1799 10.3785 3.81845 10.7759 4.73466C10.9366 5.10518 11.1032 5.47373 11.2581 5.84673C11.2785 5.89597 11.3428 6.05065 11.4543 6.17902C11.5461 6.28461 11.6586 6.37027 11.7847 6.43071C11.9381 6.50417 12.1042 6.52495 12.1571 6.53157C12.3889 6.56059 12.6201 6.59677 12.8514 6.62943C13.8448 6.76965 14.5376 6.86819 15.0367 6.98471C15.5572 7.10625 15.6976 7.21384 15.7338 7.25405C15.9285 7.4706 16.0094 7.76647 15.9521 8.05204C15.9455 8.0849 15.909 8.1957 15.6972 8.42754C15.4884 8.65623 15.1722 8.93628 14.7081 9.31742C14.3803 9.58659 14.3327 10.0706 14.6018 10.3985C14.8708 10.7264 15.3547 10.774 15.6824 10.5049C16.1496 10.1212 16.5413 9.78094 16.831 9.46372C17.1178 9.14967 17.3704 8.78897 17.4576 8.35461C17.6105 7.59312 17.3947 6.80412 16.8755 6.22666C16.5005 5.8096 15.9462 5.61951 15.3857 5.48864C14.8116 5.35461 14.0501 5.24714 13.1051 5.11375L12.5823 5.03995L12.1688 4.0868C11.7909 3.2154 11.4862 2.51298 11.2055 1.9972C10.9312 1.49324 10.6017 1.01117 10.1017 0.760501C9.40891 0.413167 8.59293 0.413166 7.90013 0.760501C7.43824 0.992073 7.1259 1.41824 6.87011 1.86496C6.65933 2.23308 6.78675 2.70243 7.15471 2.9133C7.52266 3.12416 7.99181 2.99669 8.20259 2.62858C8.423 2.24363 8.54734 2.15441 8.58813 2.13396Z" fill="#2C2D2E"/>
</svg>
