<svg width="24" height="24" viewBox="0 0 24 24" fill="none" xmlns="http://www.w3.org/2000/svg">
<path fill-rule="evenodd" clip-rule="evenodd" d="M14.2593 7.47756L5.22219 16.5147C5.0159 16.721 4.90001 17.0008 4.90001 17.2925L4.90001 18.9996C4.90001 19.0548 4.94478 19.0996 5.00001 19.0996H6.70711C6.99885 19.0996 7.27864 18.9837 7.48493 18.7774L16.522 9.7403L14.2593 7.47756ZM15.5321 6.20476L17.7948 8.4675L18.9262 7.33613C19.1605 7.10182 19.1605 6.72192 18.9262 6.48761L17.512 5.07339C17.2777 4.83908 16.8978 4.83908 16.6634 5.07339L15.5321 6.20476ZM3.94939 15.2419L15.3907 3.8006C16.3279 2.86334 17.8475 2.86334 18.7848 3.8006L20.199 5.21481C21.1362 6.15207 21.1362 7.67167 20.199 8.60893L8.75772 20.0502C8.21387 20.5941 7.47624 20.8996 6.70711 20.8996L5.00001 20.8996C3.95067 20.8996 3.10001 20.0489 3.10001 18.9996L3.10001 17.2925C3.10001 16.5234 3.40554 15.7857 3.94939 15.2419Z" fill="#2688EB"/>
</svg>
