<svg width="24" height="24" viewBox="0 0 24 24" fill="none" xmlns="http://www.w3.org/2000/svg">
<path fill-rule="evenodd" clip-rule="evenodd" d="M4.33833 7.78715C3.6657 7.9442 3.00055 8.1723 2.55057 8.67277C1.92753 9.36573 1.66851 10.3125 1.85201 11.2263C1.98453 11.8863 2.44087 12.4214 2.93982 12.8993C3.45083 13.3886 4.17159 13.9651 5.06609 14.6806L5.19978 14.7876L5.14704 15.0655C4.89578 16.3895 4.69579 17.4434 4.6132 18.2478C4.53436 19.0157 4.5265 19.8075 4.9048 20.428C5.4168 21.2678 6.31358 21.797 7.29596 21.839C8.02182 21.8701 8.7107 21.4802 9.34431 21.0397C10.0081 20.5783 10.8333 19.8933 11.87 19.0328L12 18.9249L12.13 19.0328C13.1668 19.8933 13.992 20.5783 14.6557 21.0397C15.2893 21.4802 15.9782 21.8701 16.7041 21.839C17.6864 21.797 18.5832 21.2678 19.0952 20.428C19.2746 20.1338 19.3641 19.808 19.4035 19.4777L21.2636 21.3386C21.6151 21.6903 22.1849 21.6903 22.5364 21.3386C22.8879 20.987 22.8879 20.4169 22.5364 20.0653L5.13639 2.65778C4.78492 2.30615 4.21507 2.30615 3.8636 2.65778C3.51213 3.0094 3.51213 3.5795 3.8636 3.93112L7.24441 7.31339C6.27425 7.45021 5.2935 7.56414 4.33833 7.78715ZM7.37947 9.15609C6.18748 9.32435 5.356 9.44262 4.75713 9.58244C4.13249 9.72828 3.96399 9.85739 3.92061 9.90564C3.68697 10.1655 3.58984 10.5206 3.65865 10.8632C3.67142 10.9269 3.75072 11.1238 4.21407 11.5675C4.65832 11.993 5.31366 12.5183 6.25393 13.2704L6.56477 13.5188C6.61863 13.5604 6.78843 13.6916 6.90573 13.8742C7.00208 14.0243 7.06467 14.1935 7.08911 14.3701C7.11887 14.5851 7.07531 14.7953 7.06151 14.862L6.96627 15.3628C6.70421 16.7438 6.51984 17.7198 6.44629 18.4362C6.36803 19.1984 6.44979 19.4218 6.47801 19.4681C6.67001 19.783 7.0063 19.9814 7.3747 19.9972C7.42884 19.9995 7.66376 19.9631 8.29276 19.5258C8.88387 19.1149 9.64852 18.4813 10.7299 17.5838L11.098 17.2783L11.2859 17.1299C11.3656 17.0732 11.4925 16.9931 11.664 16.9443C11.8837 16.8818 12.1164 16.8818 12.336 16.9443C12.5076 16.9931 12.6344 17.0732 12.7141 17.1299L12.9021 17.2783L13.2702 17.5838C14.3515 18.4813 15.1162 19.1149 15.7073 19.5258C16.3363 19.9631 16.5712 19.9995 16.6253 19.9972C16.9937 19.9814 17.33 19.783 17.522 19.4681C17.5328 19.4504 17.5898 19.3359 17.5871 18.9709C17.585 18.6949 17.5505 18.3406 17.4827 17.8785C17.4463 17.63 17.3277 17.401 17.1501 17.2234L8.87544 8.94512L7.37947 9.15609Z" fill="#2688EB"/>
<path d="M11.5047 3.76154C11.8164 3.60524 12.1836 3.60524 12.4954 3.76154C12.5536 3.79074 12.7221 3.9186 13.0271 4.47901C13.3198 5.01666 13.6531 5.78292 14.13 6.88238C14.3228 7.327 14.5228 7.76926 14.7086 8.21685C14.7331 8.27594 14.8102 8.46156 14.9441 8.6156C15.0542 8.74231 15.1892 8.8451 15.3406 8.91763C15.5246 9.00578 15.724 9.03073 15.7874 9.03867C16.0656 9.07349 16.343 9.11691 16.6206 9.15609C17.8126 9.32436 18.644 9.44261 19.2429 9.58244C19.8675 9.72828 20.036 9.85739 20.0794 9.90564C20.3131 10.1655 20.4102 10.5206 20.3414 10.8632C20.3335 10.9027 20.2897 11.0356 20.0356 11.3138C19.785 11.5883 19.4056 11.9243 18.8486 12.3817C18.4553 12.7047 18.3982 13.2855 18.7211 13.679C19.0439 14.0725 19.6245 14.1296 20.0178 13.8066C20.5785 13.3462 21.0485 12.9379 21.3961 12.5572C21.7402 12.1804 22.0434 11.7475 22.148 11.2263C22.3315 10.3125 22.0725 9.36573 21.4495 8.67277C20.9995 8.1723 20.3343 7.9442 19.6617 7.78715C18.9728 7.62631 18.0591 7.49734 16.9251 7.33729L16.2976 7.24872L15.8015 6.10494C15.348 5.05926 14.9824 4.21636 14.6455 3.59742C14.3164 2.99267 13.921 2.41419 13.321 2.11338C12.4896 1.69658 11.5104 1.69658 10.6791 2.11338C10.1248 2.39127 9.74998 2.90267 9.44304 3.43874C9.19011 3.88047 9.34301 4.4437 9.78455 4.69674C10.2261 4.94978 10.7891 4.79681 11.042 4.35508C11.3065 3.89314 11.4557 3.78608 11.5047 3.76154Z" fill="#2688EB"/>
</svg>
