<svg width="24" height="24" viewBox="0 0 24 24" fill="none" xmlns="http://www.w3.org/2000/svg">
<path d="M18.85 7.95078C18.85 6.37596 17.5748 5.10078 16 5.10078C14.4252 5.10078 13.15 6.37596 13.15 7.95078C13.15 9.5256 14.4252 10.8008 16 10.8008C17.5748 10.8008 18.85 9.5256 18.85 7.95078ZM20.65 7.95078C20.65 10.5197 18.5689 12.6008 16 12.6008C13.4311 12.6008 11.35 10.5197 11.35 7.95078C11.35 5.38185 13.4311 3.30078 16 3.30078C18.5689 3.30078 20.65 5.38185 20.65 7.95078ZM9.9 18.4293C9.9 19.1982 9.80923 19.1008 10.2353 19.1008H21.7647C22.1908 19.1008 22.1 19.1982 22.1 18.4293C22.1 16.5368 19.3218 15.4008 16 15.4008C12.6782 15.4008 9.9 16.5368 9.9 18.4293ZM16 13.6008C20.2272 13.6008 23.9 15.1026 23.9 18.4293C23.9 20.165 23.2145 20.9008 21.7647 20.9008H10.2353C8.78554 20.9008 8.1 20.165 8.1 18.4293C8.1 15.1026 11.7728 13.6008 16 13.6008ZM5 6.50078C5.49706 6.50078 5.9 6.90373 5.9 7.40078L5.899 10.1008L8.6 10.1008C9.09706 10.1008 9.5 10.5037 9.5 11.0008C9.5 11.4978 9.09706 11.9008 8.6 11.9008H5.899L5.9 14.6008C5.9 15.0978 5.49706 15.5008 5 15.5008C4.50294 15.5008 4.1 15.0978 4.1 14.6008L4.099 11.9008H1.4C0.902944 11.9008 0.5 11.4978 0.5 11.0008C0.5 10.5037 0.902944 10.1008 1.4 10.1008L4.099 10.1008L4.1 7.40078C4.1 6.90373 4.50294 6.50078 5 6.50078Z" fill="#2688EB"/>
</svg>
